<?xml version="1.0" encoding="UTF-8" standalone="no"?>
<!DOCTYPE svg PUBLIC "-//W3C//DTD SVG 1.1//EN" "http://www.w3.org/Graphics/SVG/1.1/DTD/svg11.dtd">
<svg width="100%" height="100%" viewBox="0 0 2560 1440" version="1.1" xmlns="http://www.w3.org/2000/svg" xmlns:xlink="http://www.w3.org/1999/xlink" xml:space="preserve" xmlns:serif="http://www.serif.com/" style="fill-rule:evenodd;clip-rule:evenodd;stroke-linejoin:round;stroke-miterlimit:2;">
    <path d="M2300.1,747.74C2278.92,742.915 2257.32,740.156 2235.61,739.499L2218.72,803.427C2198.76,803.922 2178.91,806.611 2159.54,811.448L2126.24,754.323C2105.48,760.735 2085.4,769.144 2066.27,779.431L2083.6,843.24C2066.56,853.649 2050.72,865.901 2036.36,879.776L1978.96,846.954C1964.19,862.884 1951.01,880.208 1939.58,898.683L1986.5,945.276C1976.95,962.81 1969.35,981.342 1963.86,1000.54L1897.73,1000.81C1892.91,1021.99 1890.15,1043.59 1889.49,1065.3L1953.42,1082.19C1953.92,1102.15 1956.61,1122 1961.44,1141.37L1904.32,1174.67C1910.73,1195.43 1919.14,1215.51 1929.43,1234.64L1993.24,1217.31C2003.64,1234.35 2015.9,1250.19 2029.77,1264.55L1996.95,1321.95C2012.88,1336.71 2030.2,1349.9 2048.68,1361.33L2095.27,1314.41C2112.8,1323.96 2131.34,1331.56 2150.53,1337.06L2150.81,1403.18C2171.99,1408 2193.58,1410.76 2215.3,1411.42L2232.19,1347.49C2252.15,1346.99 2271.99,1344.3 2291.37,1339.47L2324.67,1396.59C2345.42,1390.18 2365.5,1381.77 2384.64,1371.48L2367.3,1307.67C2384.34,1297.27 2400.18,1285.01 2414.54,1271.14L2471.94,1303.96C2486.71,1288.03 2499.9,1270.71 2511.32,1252.23L2464.41,1205.64C2473.96,1188.11 2481.55,1169.57 2487.05,1150.38L2553.17,1150.1C2557.99,1128.92 2560.75,1107.33 2561.41,1085.61L2497.48,1068.72C2496.99,1048.76 2494.3,1028.91 2489.46,1009.54L2546.59,976.244C2540.18,955.489 2531.77,935.406 2521.48,916.274L2457.67,933.609C2447.26,916.569 2435.01,900.727 2421.13,886.369L2453.96,828.968C2438.03,814.201 2420.7,801.012 2402.23,789.587L2355.63,836.504C2338.1,826.952 2319.57,819.358 2300.37,813.861L2300.1,747.74ZM-14.222,1032.57C-23.875,1029.77 -33.776,1027.91 -43.788,1027.02L-53.244,1053.94C-62.636,1053.62 -72.034,1054.34 -81.269,1056.08L-94.708,1030.92C-104.468,1033.32 -113.972,1036.66 -123.086,1040.89L-117.818,1068.93C-126.11,1073.35 -133.89,1078.67 -141.017,1084.8L-165.238,1069.73C-172.489,1076.68 -179.049,1084.33 -184.825,1092.56L-166.244,1114.2C-171.214,1122.18 -175.29,1130.68 -178.401,1139.55L-206.913,1138.6C-209.714,1148.25 -211.572,1158.16 -212.461,1168.17L-185.546,1177.62C-185.862,1187.02 -185.143,1196.41 -183.403,1205.65L-208.568,1219.09C-206.166,1228.85 -202.825,1238.35 -198.589,1247.47L-170.552,1242.2C-166.129,1250.49 -160.808,1258.27 -154.684,1265.4L-169.758,1289.62C-162.798,1296.87 -155.152,1303.43 -146.927,1309.2L-125.279,1290.62C-117.304,1295.59 -108.805,1299.67 -99.938,1302.78L-100.882,1331.29C-91.229,1334.09 -81.328,1335.95 -71.316,1336.84L-61.86,1309.92C-52.468,1310.24 -43.07,1309.52 -33.835,1307.78L-20.396,1332.95C-10.636,1330.55 -1.132,1327.2 7.983,1322.97L2.714,1294.93C11.006,1290.51 18.786,1285.19 25.913,1279.06L50.134,1294.14C57.385,1287.18 63.945,1279.53 69.721,1271.31L51.14,1249.66C56.11,1241.68 60.187,1233.18 63.297,1224.32L91.809,1225.26C94.61,1215.61 96.468,1205.71 97.357,1195.7L70.442,1186.24C70.758,1176.85 70.039,1167.45 68.299,1158.21L93.464,1144.78C91.063,1135.02 87.721,1125.51 83.485,1116.4L55.448,1121.66C51.026,1113.37 45.704,1105.59 39.58,1098.47L54.654,1074.25C47.694,1066.99 40.048,1060.43 31.823,1054.66L10.175,1073.24C2.2,1068.27 -6.298,1064.19 -15.166,1061.08L-14.222,1032.57ZM265.684,1025.97C256.802,1024.49 247.807,1023.77 238.801,1023.84L230.731,1052.17C221.398,1052.85 212.169,1054.56 203.209,1057.26L185.551,1033.68C177.115,1036.83 168.968,1040.71 161.203,1045.27L168.379,1073.84C160.636,1079.1 153.496,1085.19 147.086,1092.01L120.005,1080.42C114.276,1087.37 109.16,1094.8 104.717,1102.63L125.216,1123.79C121.138,1132.21 118,1141.05 115.857,1150.16L86.61,1153.67C85.123,1162.55 84.409,1171.54 84.478,1180.55L112.807,1188.62C113.487,1197.95 115.192,1207.18 117.891,1216.14L94.314,1233.8C97.467,1242.24 101.346,1250.38 105.909,1258.15L134.478,1250.97C139.733,1258.71 145.824,1265.86 152.642,1272.27L141.052,1299.35C148.001,1305.08 155.434,1310.19 163.268,1314.63L184.422,1294.13C192.844,1298.21 201.689,1301.35 210.798,1303.49L214.302,1332.74C223.184,1334.23 232.179,1334.94 241.185,1334.87L249.256,1306.54C258.588,1305.86 267.818,1304.16 276.777,1301.46L294.435,1325.04C302.872,1321.88 311.018,1318.01 318.783,1313.44L311.608,1284.87C319.35,1279.62 326.491,1273.53 332.9,1266.71L359.981,1278.3C365.711,1271.35 370.826,1263.92 375.269,1256.08L354.77,1234.93C358.848,1226.51 361.987,1217.66 364.129,1208.55L393.376,1205.05C394.864,1196.17 395.577,1187.17 395.508,1178.17L367.179,1170.1C366.499,1160.76 364.795,1151.53 362.095,1142.57L385.672,1124.92C382.519,1116.48 378.64,1108.33 374.077,1100.57L345.508,1107.74C340.253,1100 334.162,1092.86 327.345,1086.45L338.934,1059.37C331.985,1053.64 324.552,1048.53 316.718,1044.08L295.565,1064.58C287.142,1060.5 278.297,1057.37 269.188,1055.22L265.684,1025.97ZM2807.4,808.975C2792.01,807.335 2776.5,807.189 2761.09,808.541L2754.48,855.14C2740.4,857.159 2726.59,860.722 2713.29,865.765L2684.97,828.174C2670.82,834.446 2657.32,842.073 2644.65,850.951L2662.23,894.61C2651.04,903.399 2640.86,913.392 2631.86,924.41L2588.54,906.015C2579.43,918.519 2571.55,931.876 2565.01,945.9L2602.06,974.921C2596.77,988.124 2592.95,1001.87 2590.67,1015.91L2543.95,1021.64C2542.31,1037.03 2542.17,1052.53 2543.52,1067.95L2590.12,1074.55C2592.14,1088.63 2595.7,1102.45 2600.74,1115.75L2563.15,1144.07C2569.42,1158.21 2577.05,1171.72 2585.93,1184.39L2629.59,1166.81C2638.38,1178 2648.37,1188.18 2659.39,1197.18L2640.99,1240.5C2653.5,1249.61 2666.85,1257.49 2680.88,1264.03L2709.9,1226.97C2723.1,1232.27 2736.85,1236.09 2750.89,1238.37L2756.62,1285.09C2772,1286.73 2787.51,1286.87 2802.92,1285.52L2809.53,1238.92C2823.61,1236.9 2837.43,1233.34 2850.73,1228.3L2879.05,1265.89C2893.19,1259.61 2906.69,1251.99 2919.37,1243.11L2901.79,1199.45C2912.97,1190.66 2923.16,1180.67 2932.15,1169.65L2975.47,1188.05C2984.59,1175.54 2992.47,1162.18 2999,1148.16L2961.95,1119.14C2967.24,1105.94 2971.06,1092.19 2973.35,1078.15L3020.06,1072.42C3021.7,1057.03 3021.85,1041.53 3020.5,1026.11L2973.9,1019.51C2971.88,1005.43 2968.32,991.611 2963.27,978.31L3000.86,949.99C2994.59,935.846 2986.96,922.343 2978.09,909.671L2934.43,927.249C2925.64,916.065 2915.64,905.882 2904.63,896.884L2923.02,853.563C2910.52,844.45 2897.16,836.57 2883.14,830.034L2854.12,867.087C2840.91,861.795 2827.17,857.974 2813.13,855.69L2807.4,808.975ZM-41.859,1098.3C4.298,1106.96 34.74,1151.47 26.079,1197.62C17.418,1243.78 -27.088,1274.22 -73.245,1265.56C-119.402,1256.9 -149.844,1212.4 -141.183,1166.24C-132.522,1120.08 -88.016,1089.64 -41.859,1098.3ZM246.721,1094.53C293.536,1098.25 328.53,1139.27 324.817,1186.09C321.104,1232.9 280.081,1267.89 233.266,1264.18C186.45,1260.47 151.456,1219.45 155.169,1172.63C158.882,1125.82 199.905,1090.82 246.721,1094.53ZM2248.76,893.042C2349.44,905.906 2420.73,998.088 2407.87,1098.77C2395,1199.44 2302.82,1270.74 2202.14,1257.87C2101.47,1245.01 2030.17,1152.83 2043.04,1052.15C2055.9,951.472 2148.08,880.178 2248.76,893.042ZM284.399,1151.9L183.285,1151.9L183.285,1209.8L284.399,1209.8L284.399,1151.9ZM1717.82,656.765C1700.26,652.766 1682.36,650.478 1664.36,649.934L1650.33,701.925C1633.71,702.337 1617.18,704.577 1601.05,708.604L1573.69,662.222C1556.49,667.537 1539.84,674.508 1523.98,683.036L1537.83,735.076C1523.64,743.742 1510.45,753.944 1498.49,765.497L1451.61,739.01C1439.37,752.215 1428.43,766.576 1418.96,781.891L1456.97,820.035C1449.02,834.635 1442.7,850.065 1438.12,866.048L1384.27,866.552C1380.27,884.11 1377.99,902.013 1377.44,920.012L1429.43,934.039C1429.84,950.66 1432.08,967.184 1436.11,983.315L1389.73,1010.68C1395.04,1027.88 1402.02,1044.53 1410.54,1060.39L1462.58,1046.54C1471.25,1060.73 1481.45,1073.92 1493,1085.88L1466.52,1132.76C1479.72,1145 1494.08,1155.94 1509.4,1165.41L1547.54,1127.39C1562.14,1135.35 1577.57,1141.67 1593.56,1146.25L1594.06,1200.1C1611.62,1204.1 1629.52,1206.38 1647.52,1206.93L1661.55,1154.94C1678.17,1154.52 1694.69,1152.29 1710.82,1148.26L1738.18,1194.64C1755.39,1189.32 1772.04,1182.35 1787.89,1173.83L1774.05,1121.79C1788.24,1113.12 1801.43,1102.92 1813.38,1091.36L1860.27,1117.85C1872.51,1104.65 1883.44,1090.29 1892.91,1074.97L1854.9,1036.83C1862.86,1022.23 1869.18,1006.8 1873.76,990.813L1927.6,990.309C1931.6,972.752 1933.89,954.848 1934.43,936.85L1882.44,922.822C1882.03,906.202 1879.79,889.677 1875.76,873.547L1922.15,846.186C1916.83,828.982 1909.86,812.333 1901.33,796.474L1849.29,810.321C1840.63,796.133 1830.42,782.942 1818.87,770.986L1845.36,724.1C1832.15,711.859 1817.79,700.926 1802.48,691.455L1764.33,729.467C1749.73,721.513 1734.3,715.19 1718.32,710.613L1717.82,656.765ZM2334.18,1197.48L2115.18,1197.48L2115.18,1141.96L2334.18,1141.96L2334.18,1197.48ZM206.862,1174.43L239.873,1196.47L239.885,1183.18L261.533,1189.35L229.8,1165.84L228.853,1179.32L206.862,1174.43ZM301.406,1171.36C301.406,1169.51 299.903,1168 298.052,1168L290.207,1168L290.207,1194.32L298.04,1194.32C299.898,1194.32 301.406,1192.81 301.406,1190.95L301.406,1171.36ZM2217.44,1158.84L2208.11,1183.38L2216.27,1183.38L2225.6,1158.84L2217.44,1158.84ZM2197.81,1158.84L2188.49,1183.38L2196.65,1183.38L2205.97,1158.84L2197.81,1158.84ZM2158.13,1158.84L2148.81,1183.38L2156.97,1183.38L2166.3,1158.84L2158.13,1158.84ZM2178.17,1158.84L2168.84,1183.38L2177,1183.38L2186.33,1158.84L2178.17,1158.84ZM2137.74,1158.84L2128.41,1183.38L2136.57,1183.38L2145.9,1158.84L2137.74,1158.84ZM2308.01,1161.92C2312.88,1161.92 2316.84,1165.88 2316.84,1170.75C2316.84,1175.62 2312.88,1179.58 2308.01,1179.58C2303.14,1179.58 2299.18,1175.62 2299.18,1170.75C2299.18,1165.88 2303.14,1161.92 2308.01,1161.92ZM2783.24,916.049C2855.53,916.727 2913.67,975.969 2912.99,1048.26C2912.31,1120.55 2853.07,1178.69 2780.78,1178.01C2708.49,1177.33 2650.35,1118.09 2651.03,1045.8C2651.7,973.51 2710.95,915.371 2783.24,916.049ZM1138.99,460.355C1117.34,456.55 1095.37,454.853 1073.4,455.288L1059.66,522.112C1039.61,523.614 1019.79,527.318 1000.55,533.157L963.606,475.803C942.954,483.333 923.081,492.848 904.265,504.213L925.78,568.953C909.168,580.278 893.852,593.398 880.11,608.075L819.441,576.874C805.321,593.721 792.868,611.898 782.256,631.149L833.258,676.457C824.534,694.572 817.83,713.592 813.267,733.173L745.127,736.487C741.322,758.137 739.625,780.105 740.06,802.083L806.884,815.82C808.386,835.87 812.09,855.694 817.929,874.933L760.575,911.873C768.105,932.525 777.62,952.398 788.985,971.214L853.725,949.699C865.05,966.312 878.17,981.627 892.847,995.37L861.646,1056.04C878.493,1070.16 896.67,1082.61 915.921,1093.22L961.229,1042.22C979.344,1050.94 998.364,1057.65 1017.95,1062.21L1021.26,1130.35C1042.91,1134.16 1064.88,1135.85 1086.86,1135.42L1100.59,1068.6C1120.64,1067.09 1140.47,1063.39 1159.7,1057.55L1196.64,1114.9C1217.3,1107.37 1237.17,1097.86 1255.99,1086.49L1234.47,1021.75C1251.08,1010.43 1266.4,997.309 1280.14,982.633L1340.81,1013.83C1354.93,996.986 1367.38,978.809 1378,959.559L1326.99,914.25C1335.72,896.135 1342.42,877.116 1346.98,857.534L1415.12,854.22C1418.93,832.57 1420.63,810.602 1420.19,788.625L1353.37,774.887C1351.87,754.837 1348.16,735.014 1342.32,715.774L1399.68,678.834C1392.15,658.182 1382.63,638.309 1371.27,619.493L1306.53,641.008C1295.2,624.396 1282.08,609.08 1267.4,595.338L1298.61,534.669C1281.76,520.55 1263.58,508.096 1244.33,497.484L1199.02,548.486C1180.91,539.762 1161.89,533.058 1142.31,528.495L1138.99,460.355ZM-240.676,716.846C-253.664,713.129 -266.981,710.68 -280.441,709.534L-293.092,748.166C-305.539,747.792 -317.99,748.79 -330.219,751.141L-348.86,715.015C-361.965,718.29 -374.723,722.828 -386.953,728.565L-378.593,768.347C-389.559,774.247 -399.843,781.337 -409.259,789.487L-443.465,767.522C-453.177,776.911 -461.956,787.219 -469.68,798.303L-442.548,828.575C-449.096,839.168 -454.457,850.45 -458.536,862.216L-499.142,860.296C-502.858,873.284 -505.307,886.601 -506.454,900.061L-467.821,912.712C-468.195,925.159 -467.197,937.61 -464.847,949.84L-500.972,968.48C-497.697,981.586 -493.159,994.343 -487.422,1006.57L-447.64,998.213C-441.74,1009.18 -434.651,1019.46 -426.5,1028.88L-448.466,1063.09C-439.077,1072.8 -428.768,1081.58 -417.685,1089.3L-387.412,1062.17C-376.819,1068.72 -365.538,1074.08 -353.771,1078.16L-355.691,1118.76C-342.704,1122.48 -329.387,1124.93 -315.927,1126.07L-303.276,1087.44C-290.828,1087.82 -278.377,1086.82 -266.148,1084.47L-247.508,1120.59C-234.402,1117.32 -221.644,1112.78 -209.414,1107.04L-217.775,1067.26C-206.808,1061.36 -196.524,1054.27 -187.108,1046.12L-152.903,1068.09C-143.19,1058.7 -134.411,1048.39 -126.688,1037.31L-153.819,1007.03C-147.272,996.439 -141.91,985.158 -137.831,973.392L-97.226,975.311C-93.509,962.324 -91.06,949.007 -89.914,935.547L-128.546,922.896C-128.172,910.448 -129.17,897.997 -131.521,885.768L-95.395,867.128C-98.67,854.022 -103.208,841.265 -108.945,829.035L-148.727,837.395C-154.627,826.428 -161.717,816.144 -169.867,806.728L-147.902,772.523C-157.291,762.81 -167.599,754.031 -178.683,746.308L-208.955,773.439C-219.548,766.892 -230.83,761.53 -242.596,757.451L-240.676,716.846ZM2334.18,954.255L2115.18,954.255L2115.18,1123.61L2334.18,1123.61L2334.18,954.255ZM2311.99,976.036L2137.38,976.036L2137.38,1101.83L2311.99,1101.83L2311.99,976.036ZM1675.26,777.215C1758.72,787.879 1817.82,864.294 1807.15,947.752C1796.49,1031.21 1720.07,1090.31 1636.62,1079.65C1553.16,1068.98 1494.06,992.567 1504.72,909.109C1515.39,825.651 1591.8,766.551 1675.26,777.215ZM2190.44,1040.01L2166.93,1063.52L2179.43,1076.03L2202.95,1052.52L2202.99,1052.56L2215.5,1040.05L2179.49,1004.05L2166.98,1016.56L2190.44,1040.01ZM2274.74,1054.66L2223.82,1054.66L2223.82,1072.35L2274.74,1072.35L2274.74,1054.66ZM562.978,534.362C546.258,529.667 529.122,526.604 511.811,525.216L495.779,575.569C479.819,575.17 463.863,576.528 448.2,579.62L423.888,532.701C407.06,536.995 390.688,542.91 375.002,550.364L386.295,601.987C372.273,609.621 359.135,618.775 347.116,629.284L302.601,600.807C290.175,612.94 278.955,626.249 269.097,640.547L304.688,679.607C296.362,693.23 289.561,707.727 284.407,722.837L231.617,720.433C226.923,737.153 223.86,754.289 222.472,771.6L272.825,787.632C272.425,803.592 273.784,819.548 276.875,835.211L229.956,859.523C234.251,876.351 240.166,892.723 247.62,908.409L299.243,897.116C306.877,911.137 316.031,924.276 326.54,936.295L298.063,980.81C310.196,993.236 323.505,1004.46 337.803,1014.31L376.863,978.723C390.485,987.049 404.983,993.85 420.093,999.004L417.689,1051.79C434.409,1056.49 451.545,1059.55 468.856,1060.94L484.888,1010.59C500.848,1010.99 516.804,1009.63 532.467,1006.54L556.779,1053.45C573.607,1049.16 589.978,1043.25 605.664,1035.79L594.371,984.168C608.393,976.534 621.532,967.38 633.551,956.871L678.065,985.348C690.491,973.215 701.712,959.906 711.57,945.608L675.978,906.548C684.304,892.926 691.106,878.428 696.26,863.318L749.049,865.722C753.744,849.002 756.807,831.866 758.195,814.555L707.842,798.523C708.241,782.563 706.883,766.607 703.791,750.944L750.71,726.632C746.416,709.804 740.501,693.433 733.047,677.747L681.424,689.04C673.79,675.018 664.636,661.879 654.127,649.86L682.603,605.345C670.471,592.919 657.162,581.699 642.864,571.841L603.804,607.433C590.181,599.107 575.684,592.305 560.574,587.151L562.978,534.362ZM-277.501,805.325C-215.422,816.74 -174.29,876.408 -185.705,938.487C-197.12,1000.57 -256.788,1041.7 -318.867,1030.28C-380.946,1018.87 -422.078,959.2 -410.663,897.121C-399.247,835.042 -339.579,793.91 -277.501,805.325ZM1672.32,979.062C1672.33,979.14 1672.33,979.218 1672.33,979.298L1672.33,983.709C1672.33,984.927 1671.34,985.915 1670.13,985.915L1635.43,985.915C1634.22,985.915 1633.23,984.927 1633.23,983.709L1633.23,979.298C1633.23,979.218 1633.23,979.14 1633.24,979.062L1541.69,979.062L1541.69,988.498C1541.69,993.705 1545.92,997.933 1551.13,997.933L1754.43,997.933C1759.64,997.933 1763.87,993.705 1763.87,988.498L1763.87,979.062L1672.32,979.062ZM1094.46,609.808C1196.86,617.717 1273.58,707.279 1265.67,809.684C1257.76,912.089 1168.2,988.808 1065.8,980.899C963.39,972.99 886.671,883.429 894.58,781.023C902.489,678.618 992.051,601.899 1094.46,609.808ZM1743.78,857.784C1743.78,854.021 1740.72,850.966 1736.96,850.966L1568.71,850.966C1564.95,850.966 1561.9,854.021 1561.9,857.784L1561.9,972.19L1743.78,972.19L1743.78,857.784ZM1730.29,866.483L1575.45,866.483L1575.45,956.903L1730.29,956.903L1730.29,866.483ZM516.203,648.345C596.084,662.623 649.344,739.067 635.066,818.948C620.788,898.828 544.344,952.089 464.463,937.811C384.583,923.533 331.322,847.088 345.6,767.208C359.878,687.327 436.323,634.067 516.203,648.345ZM1010.1,917.22L1010.1,895.263L1021.57,895.263L1021.57,917.22L1030.59,917.22L1030.59,895.263L1042.05,895.263L1042.05,917.22L1051.62,917.22L1051.62,895.263L1063.09,895.263L1063.09,917.22L1181.52,917.22L1181.52,674.374L980.851,674.374L980.851,917.22L1010.1,917.22ZM1105.06,828.651C1104.86,828.086 1104.75,827.479 1104.75,826.846C1104.75,823.877 1107.16,821.467 1110.13,821.467C1111.88,821.467 1113.43,822.302 1114.41,823.594L1148.2,862.704C1150.53,865.294 1151.94,868.716 1151.94,872.466C1151.94,880.541 1145.38,887.098 1137.31,887.098C1130.93,887.098 1125.5,883.005 1123.5,877.304L1105.06,828.651ZM597.354,753.247L561.233,753.247L561.233,866.332L597.354,866.332L597.354,753.247ZM491.934,848.361L440.076,848.361L430.625,865.996L501.384,865.996L491.934,848.361ZM1103.86,854.03C1096.55,856.196 1088.81,857.358 1080.8,857.358C1036.01,857.358 999.647,820.994 999.647,776.202C999.647,731.411 1036.01,695.047 1080.8,695.047C1125.59,695.047 1161.96,731.411 1161.96,776.202C1161.96,798.826 1152.68,819.301 1137.73,834.022L1123.28,817.3C1120.37,813.477 1115.78,811.008 1110.61,811.008C1101.83,811.008 1094.69,818.138 1094.69,826.921C1094.69,828.794 1095.02,830.591 1095.62,832.261L1103.86,854.03ZM546.911,723.312L385.218,723.312L385.218,839.8L546.911,839.8L546.911,723.312ZM583.335,829.087L574.826,829.087L574.826,819.887L583.335,819.887L583.335,829.087ZM529.794,739.341L402.335,739.341L402.335,823.772L529.794,823.772L529.794,739.341ZM2661.42,340.207C2646.37,336.624 2631.01,334.509 2615.55,333.89L2603.05,377.591C2588.7,377.807 2574.42,379.6 2560.47,382.94L2537.55,343.689C2522.72,348.112 2508.36,353.962 2494.66,361.156L2505.68,405.253C2493.37,412.612 2481.9,421.305 2471.48,431.174L2432.01,408.643C2421.38,419.886 2411.86,432.134 2403.6,445.213L2435.19,477.89C2428.21,490.421 2422.62,503.684 2418.54,517.439L2373.08,517.663C2369.5,532.715 2367.39,548.079 2366.77,563.538L2410.47,576.039C2410.68,590.385 2412.48,604.664 2415.82,618.618L2376.57,641.54C2380.99,656.366 2386.84,670.729 2394.03,684.427L2438.13,673.402C2445.49,685.719 2454.18,697.188 2464.05,707.602L2441.52,747.078C2452.76,757.707 2465.01,767.221 2478.09,775.486L2510.77,743.89C2523.3,750.877 2536.56,756.463 2550.32,760.548L2550.54,806.001C2565.59,809.584 2580.95,811.699 2596.41,812.318L2608.91,768.617C2623.26,768.401 2637.54,766.608 2651.49,763.268L2674.42,802.519C2689.24,798.096 2703.61,792.246 2717.3,785.052L2706.28,740.955C2718.6,733.596 2730.06,724.903 2740.48,715.034L2779.95,737.565C2790.58,726.322 2800.1,714.074 2808.36,700.995L2776.77,668.318C2783.75,655.786 2789.34,642.524 2793.42,628.769L2838.88,628.544C2842.46,613.493 2844.58,598.129 2845.19,582.67L2801.49,570.169C2801.28,555.823 2799.48,541.544 2796.14,527.59L2835.39,504.668C2830.97,489.842 2825.12,475.479 2817.93,461.781L2773.83,472.806C2766.47,460.489 2757.78,449.02 2747.91,438.606L2770.44,399.13C2759.2,388.501 2746.95,378.987 2733.87,370.722L2701.2,402.317C2688.66,395.331 2675.4,389.745 2661.65,385.66L2661.42,340.207ZM583.335,769.421L574.826,769.421L574.826,809.546L583.335,809.546L583.335,769.421ZM91.373,146.563C70.462,140.683 49.03,136.845 27.378,135.101L7.291,198.552C-12.637,198.045 -32.56,199.734 -52.118,203.587L-82.598,144.423C-103.648,149.786 -124.128,157.178 -143.751,166.494L-129.421,231.487C-146.932,241.013 -163.341,252.437 -178.353,265.553L-234.332,229.555C-249.879,244.725 -263.92,261.366 -276.256,279.245L-231.35,328.366C-241.752,345.371 -250.251,363.469 -256.693,382.333L-323.171,379.148C-329.051,400.059 -332.89,421.491 -334.634,443.143L-271.183,463.23C-271.689,483.158 -270,503.081 -266.147,522.639L-325.311,553.119C-319.948,574.169 -312.556,594.649 -303.241,614.272L-238.247,599.942C-228.722,617.453 -217.298,633.862 -204.182,648.874L-240.179,704.853C-225.01,720.4 -208.368,734.441 -190.489,746.777L-141.368,701.871C-124.363,712.273 -106.265,720.772 -87.401,727.214L-90.586,793.692C-69.675,799.572 -48.243,803.411 -26.591,805.155L-6.504,741.704C13.424,742.21 33.346,740.521 52.904,736.668L83.385,795.832C104.434,790.469 124.914,783.077 144.538,773.762L130.208,708.768C147.719,699.243 164.128,687.819 179.139,674.703L235.118,710.7C250.666,695.531 264.707,678.889 277.043,661.01L232.136,611.889C242.539,594.884 251.037,576.786 257.48,557.922L323.958,561.107C329.838,540.196 333.676,518.764 335.42,497.112L271.969,477.025C272.476,457.097 270.787,437.175 266.934,417.617L326.098,387.136C320.735,366.087 313.343,345.607 304.027,325.983L239.034,340.313C229.508,322.802 218.084,306.393 204.968,291.382L240.966,235.403C225.796,219.855 209.155,205.814 191.276,193.478L142.155,238.385C125.15,227.982 107.052,219.484 88.188,213.041L91.373,146.563ZM1080.8,755.049C1092.48,755.049 1101.96,764.527 1101.96,776.202C1101.96,787.877 1092.48,797.356 1080.8,797.356C1069.13,797.356 1059.65,787.877 1059.65,776.202C1059.65,764.527 1069.13,755.049 1080.8,755.049ZM1081,766.173C1086.61,766.173 1091.16,770.724 1091.16,776.329C1091.16,781.935 1086.61,786.486 1081,786.486C1075.4,786.486 1070.85,781.935 1070.85,776.329C1070.85,770.724 1075.4,766.173 1081,766.173ZM1041.26,751.391C1049.45,737.871 1064.3,728.829 1081.25,728.829L1081.52,728.83L1081.52,740.514C1081.43,740.513 1081.34,740.513 1081.25,740.513C1069.04,740.513 1058.28,746.773 1052,756.254L1041.26,751.391ZM1022.6,742.946C1034.07,722.377 1056.05,708.451 1081.25,708.451L1081.52,708.452L1081.52,721.238L1081.25,721.237C1061.23,721.237 1043.72,732.097 1034.3,748.241L1022.6,742.946ZM2095.63,350C2083.11,347.174 2070.34,345.569 2057.51,345.206L2047.54,380.708C2035.58,381.028 2023.69,382.664 2012.08,385.587L1992.9,354.095C1980.64,357.908 1968.78,362.901 1957.49,369.003L1966.6,404.733C1956.4,410.993 1946.92,418.355 1938.33,426.689L1905.97,409.009C1897.26,418.44 1889.49,428.693 1882.76,439.625L1908.52,466.009C1902.82,476.53 1898.29,487.647 1895.02,499.16L1858.15,500.028C1855.32,512.55 1853.72,525.316 1853.36,538.148L1888.86,548.117C1889.18,560.081 1890.81,571.973 1893.74,583.579L1862.25,602.764C1866.06,615.021 1871.05,626.88 1877.15,638.173L1912.88,629.056C1919.14,639.257 1926.51,648.738 1934.84,657.328L1917.16,689.688C1926.59,698.396 1936.84,706.17 1947.78,712.9L1974.16,687.138C1984.68,692.843 1995.8,697.373 2007.31,700.645L2008.18,737.51C2020.7,740.336 2033.47,741.941 2046.3,742.303L2056.27,706.801C2068.23,706.481 2080.12,704.845 2091.73,701.923L2110.91,733.415C2123.17,729.601 2135.03,724.609 2146.32,718.506L2137.21,682.776C2147.41,676.517 2156.89,669.154 2165.48,660.821L2197.84,678.501C2206.55,669.07 2214.32,658.816 2221.05,647.885L2195.29,621.501C2200.99,610.98 2205.52,599.862 2208.8,588.35L2245.66,587.482C2248.49,574.96 2250.09,562.194 2250.45,549.362L2214.95,539.393C2214.63,527.429 2213,515.537 2210.07,503.931L2241.57,484.746C2237.75,472.489 2232.76,460.63 2226.66,449.336L2190.93,458.454C2184.67,448.253 2177.3,438.772 2168.97,430.182L2186.65,397.822C2177.22,389.113 2166.97,381.34 2156.03,374.61L2129.65,400.371C2119.13,394.667 2108.01,390.137 2096.5,386.865L2095.63,350ZM2623.85,443.342C2695.47,453.203 2745.6,519.353 2735.74,590.971C2725.88,662.589 2659.73,712.728 2588.11,702.866C2516.49,693.005 2466.36,626.854 2476.22,555.237C2486.08,483.619 2552.23,433.48 2623.85,443.342ZM1706.04,220.057C1691.93,216.957 1677.55,215.233 1663.11,214.908L1652.16,256.39C1638.8,256.824 1625.54,258.727 1612.59,262.064L1590.43,225.33C1576.66,229.701 1563.35,235.397 1550.67,242.339L1561.94,283.735C1550.59,290.79 1540.05,299.072 1530.51,308.433L1492.95,287.7C1483.21,298.372 1474.52,309.963 1467.02,322.31L1497.47,352.529C1491.17,364.314 1486.18,376.756 1482.6,389.632L1439.71,390.457C1436.61,404.569 1434.88,418.949 1434.56,433.394L1476.04,444.338C1476.48,457.695 1478.38,470.964 1481.72,483.905L1444.98,506.066C1449.35,519.838 1455.05,533.153 1461.99,545.826L1503.39,534.562C1510.44,545.913 1518.72,556.453 1528.09,565.991L1507.35,603.55C1518.02,613.291 1529.62,621.975 1541.96,629.479L1572.18,599.026C1583.97,605.329 1596.41,610.316 1609.28,613.896L1610.11,656.789C1624.22,659.889 1638.6,661.614 1653.05,661.939L1663.99,620.457C1677.35,620.023 1690.62,618.12 1703.56,614.783L1725.72,651.517C1739.49,647.146 1752.81,641.449 1765.48,634.508L1754.22,593.112C1765.57,586.057 1776.11,577.775 1785.64,568.414L1823.2,589.147C1832.94,578.475 1841.63,566.884 1849.13,554.537L1818.68,524.318C1824.98,512.533 1829.97,500.09 1833.55,487.215L1876.44,486.39C1879.54,472.278 1881.27,457.898 1881.59,443.453L1840.11,432.509C1839.67,419.151 1837.77,405.883 1834.43,392.942L1871.17,370.781C1866.8,357.009 1861.1,343.694 1854.16,331.021L1812.76,342.284C1805.71,330.934 1797.43,320.394 1788.07,310.855L1808.8,273.296C1798.13,263.555 1786.54,254.872 1774.19,247.368L1743.97,277.82C1732.18,271.518 1719.74,266.531 1706.87,262.951L1706.04,220.057ZM32.816,289.11C132.723,307.005 199.306,402.644 181.411,502.551C163.516,602.457 67.877,669.04 -32.03,651.145C-131.936,633.251 -198.519,537.611 -180.624,437.705C-162.73,337.798 -67.09,271.215 32.816,289.11ZM2065.47,435.928C2124.98,443.412 2167.22,497.803 2159.73,557.315C2152.25,616.826 2097.86,659.066 2038.35,651.582C1978.83,644.098 1936.59,589.707 1944.08,530.195C1951.56,470.684 2005.95,428.444 2065.47,435.928ZM2106.91,573.889L2106.91,599.719L2079.48,599.719L2079.48,613.358L2102,613.358C2111.58,613.358 2119.36,605.576 2119.36,595.991L2119.36,573.889L2106.91,573.889ZM2072.69,613.358L2062.19,613.358L2062.19,599.719L2072.69,599.719L2072.69,613.358ZM2055.4,613.358L2046.29,613.358L2046.29,599.719L2055.4,599.719L2055.4,613.358ZM2039.5,613.358L2029.92,613.358L2029.92,599.719L2039.5,599.719L2039.5,613.358ZM1995.81,599.719L1995.81,573.889L1983.36,573.889L1983.36,595.991C1983.36,605.576 1991.14,613.358 2000.73,613.358L2023.14,613.358L2023.14,599.719L1995.81,599.719ZM-23.501,587.443C-12.558,581.987 -2.749,577.593 6.499,571.108C17.102,581.192 26.796,583.662 36.859,587.053C37.289,594.909 35.024,599.197 26.973,600.939C19.608,598.57 11.441,595.622 5.072,589.299C0.497,594.079 -5.587,597.82 -12.359,601.087C-23.002,598.474 -25.507,593.644 -23.501,587.443ZM2007.2,554.773L2022.49,554.773L2028.77,543.474L2040.45,562.109L2054.03,538.96L2069.55,574.575L2084.85,545.813L2095.53,545.813L2095.53,588.545L2007.2,588.545L2007.2,554.773ZM-50.823,567.327C-31.293,560.814 -11.603,554.183 6.532,542.551C24.57,553.965 43.678,563.385 64.171,570.22C65.699,575.181 62.467,582.043 55.196,584.946C36.906,577.967 20.688,569.637 6.381,560.063C-5.491,568.012 -20.021,574.035 -39.096,582.724C-47.679,580.51 -51.945,574.95 -50.823,567.327ZM2119.36,556.597L2119.36,567.101L2106.91,567.101L2106.91,556.597L2119.36,556.597ZM1983.36,567.101L1983.36,556.597L1995.81,556.597L1995.81,567.101L1983.36,567.101ZM-68.972,542.025C-39.873,531.822 -14.467,522.107 7.801,508.344C30.679,526.172 54.137,537.742 81.223,548.438C81.76,554.625 80.17,561.857 73.005,563.112C50.446,553.028 28.469,541.536 7.373,527.919C-4.146,534.489 -25.712,545.799 -58.337,557.256C-67.354,555.56 -69.826,548.495 -68.972,542.025ZM1672.64,316.97C1739.67,325.009 1787.57,385.957 1779.53,452.99C1771.49,520.022 1710.54,567.917 1643.51,559.877C1576.48,551.838 1528.58,490.889 1536.62,423.857C1544.66,356.825 1605.61,308.93 1672.64,316.97ZM2095.53,539.286L2078.65,539.286L2070.99,555.829L2054.3,518.102L2040.88,546.806L2028.83,528.987L2019.77,545.198L2007.2,545.198L2007.2,501.837L2095.53,501.837L2095.53,539.286ZM2119.36,540.696L2119.36,549.809L2106.91,549.809L2106.91,540.696L2119.36,540.696ZM1983.36,549.809L1983.36,540.696L1995.81,540.696L1995.81,549.809L1983.36,549.809ZM35.273,485.452C35.273,485.452 43.483,508.661 90.777,524.564C95.683,526.214 92.692,530.708 90.288,534.252C87.922,537.741 86.503,539.281 83.406,538.818C55.758,534.688 16.229,496.162 22.367,493.238C22.367,493.238 21.079,490.773 25.731,486.471C30.773,481.806 35.273,485.452 35.273,485.452ZM2119.36,524.334L2119.36,533.907L2106.91,533.907L2106.91,524.334L2119.36,524.334ZM1983.36,533.907L1983.36,524.334L1995.81,524.334L1995.81,533.907L1983.36,533.907ZM-66.651,452.761C-46.555,452.761 -30.239,469.077 -30.239,489.174C-30.239,509.271 -46.555,525.587 -66.651,525.587C-86.748,525.587 -103.064,509.271 -103.064,489.174C-103.064,469.077 -86.748,452.761 -66.651,452.761ZM2079.48,477.024L2079.48,490.662L2106.91,490.662L2106.91,517.546L2119.36,517.546L2119.36,494.39C2119.36,484.805 2111.58,477.024 2102,477.024L2079.48,477.024ZM1995.81,490.662L2023.14,490.662L2023.14,477.024L2000.73,477.024C1991.14,477.024 1983.36,484.805 1983.36,494.39L1983.36,517.546L1995.81,517.546L1995.81,490.662ZM-66.651,470.968C-56.603,470.968 -48.445,479.126 -48.445,489.174C-48.445,499.223 -56.603,507.381 -66.651,507.381C-76.7,507.381 -84.858,499.223 -84.858,489.174C-84.858,479.126 -76.7,470.968 -66.651,470.968ZM90.523,434.405C110.62,434.405 126.936,450.721 126.936,470.818C126.936,490.915 110.62,507.231 90.523,507.231C70.427,507.231 54.111,490.915 54.111,470.818C54.111,450.721 70.427,434.405 90.523,434.405ZM24.818,425.332C24.818,425.332 32.149,448.094 -9.971,482.396C-24.306,494.07 -12.257,503.759 -12.257,503.759C1.073,498.109 48.425,455.92 40.259,420.344C37.422,407.984 24.818,425.332 24.818,425.332ZM965.889,39.529C951.305,36.326 936.445,34.544 921.517,34.208L910.193,76.64C896.357,77.089 882.613,79.06 869.208,82.517L846.416,44.978C832.184,49.495 818.423,55.382 805.327,62.555L816.736,104.964C804.979,112.272 794.062,120.851 784.182,130.547L745.673,109.433C735.607,120.461 726.633,132.44 718.878,145.2L749.963,176.223C743.435,188.429 738.27,201.318 734.561,214.655L690.655,215.624C687.451,230.208 685.669,245.068 685.333,259.997L727.765,271.321C728.215,285.156 730.186,298.9 733.642,312.305L696.103,335.097C700.621,349.329 706.507,363.09 713.681,376.186L756.09,364.777C763.397,376.534 771.976,387.451 781.672,397.332L760.558,435.84C771.587,445.907 783.565,454.88 796.325,462.635L827.348,431.55C839.555,438.078 852.443,443.244 865.78,446.952L866.749,490.858C881.333,494.062 896.194,495.844 911.122,496.18L922.446,453.748C936.282,453.299 950.026,451.328 963.43,447.871L986.223,485.41C1000.46,480.892 1014.22,475.006 1027.31,467.832L1015.9,425.423C1027.66,418.116 1038.58,409.537 1048.46,399.841L1086.96,420.955C1097.03,409.927 1106.01,397.948 1113.76,385.188L1082.67,354.165C1089.2,341.958 1094.37,329.07 1098.08,315.733L1141.98,314.764C1145.19,300.18 1146.97,285.319 1147.31,270.391L1104.87,259.067C1104.42,245.232 1102.45,231.487 1099,218.083L1136.54,195.291C1132.02,181.058 1126.13,167.298 1118.96,154.202L1076.55,165.611C1069.24,153.854 1060.66,142.936 1050.97,133.056L1072.08,94.548C1061.05,84.481 1049.07,75.508 1036.31,67.753L1005.29,98.838C993.084,92.309 980.195,87.144 966.858,83.436L965.889,39.529ZM2039.5,490.662L2029.92,490.662L2029.92,477.024L2039.5,477.024L2039.5,490.662ZM2055.4,490.662L2046.29,490.662L2046.29,477.024L2055.4,477.024L2055.4,490.662ZM2072.69,490.662L2062.19,490.662L2062.19,477.024L2072.69,477.024L2072.69,490.662ZM1601.38,397.174C1608.67,373.882 1630.43,356.962 1656.11,356.962C1686.63,356.962 1711.61,380.854 1713.36,410.939C1714.88,410.761 1716.42,410.67 1717.99,410.67C1739.83,410.67 1757.55,428.398 1757.55,450.235C1757.55,472.072 1739.83,489.801 1717.99,489.801L1605.32,489.801C1579.92,489.801 1559.29,469.011 1559.29,443.403C1559.29,419.135 1577.82,399.194 1601.38,397.174ZM90.523,452.612C100.572,452.612 108.73,460.77 108.73,470.818C108.73,480.866 100.572,489.024 90.523,489.024C80.475,489.024 72.317,480.866 72.317,470.818C72.317,460.77 80.475,452.612 90.523,452.612ZM-4.202,426.7C-4.202,426.7 -2.103,433.295 -25.522,455.955C-34.784,464.917 -26.205,464.228 -23.007,465.602C-18.119,467.701 -14.134,468.56 -14.134,468.56C-14.134,468.56 8.72,447.404 12.726,426.701C14.081,419.701 -4.202,426.7 -4.202,426.7ZM2352.32,117.126C2341.3,114.64 2330.07,113.228 2318.78,112.909L2310.06,145.911C2299.67,146.189 2289.34,147.61 2279.25,150.149L2261.95,120.728C2251.16,124.083 2240.73,128.475 2230.8,133.842L2239.74,166.783C2230.88,172.221 2222.64,178.618 2215.18,185.858L2185.48,169.033C2177.82,177.33 2170.98,186.349 2165.06,195.965L2189.28,220.019C2184.33,229.159 2180.39,238.818 2177.55,248.819L2143.42,249.098C2140.93,260.113 2139.52,271.343 2139.2,282.631L2172.2,291.352C2172.48,301.746 2173.9,312.078 2176.44,322.162L2147.02,339.47C2150.37,350.252 2154.76,360.684 2160.13,370.618L2193.07,361.671C2198.51,370.533 2204.91,378.77 2212.15,386.233L2195.32,415.933C2203.62,423.593 2212.64,430.431 2222.26,436.351L2246.31,412.132C2255.45,417.088 2265.11,421.023 2275.11,423.866L2275.39,457.999C2286.4,460.485 2297.63,461.898 2308.92,462.216L2317.64,429.215C2328.04,428.937 2338.37,427.516 2348.45,424.977L2365.76,454.397C2376.54,451.043 2386.97,446.651 2396.91,441.283L2387.96,408.342C2396.82,402.905 2405.06,396.508 2412.52,389.268L2442.22,406.092C2449.88,397.796 2456.72,388.777 2462.64,379.161L2438.42,355.107C2443.38,345.966 2447.31,336.308 2450.16,326.306L2484.29,326.027C2486.78,315.012 2488.19,303.782 2488.51,292.495L2455.51,283.773C2455.23,273.379 2453.81,263.047 2451.27,252.964L2480.69,235.656C2477.33,224.874 2472.94,214.442 2467.57,204.507L2434.63,213.455C2429.19,204.592 2422.8,196.355 2415.56,188.892L2432.38,159.193C2424.09,151.532 2415.07,144.694 2405.45,138.775L2381.4,162.994C2372.26,158.037 2362.6,154.102 2352.6,151.259L2352.32,117.126ZM-30.882,409.519C-30.882,409.519 -38.38,430.74 -51.734,438.847C-65.088,446.954 -38.642,448.774 -38.642,448.774L-18.166,420.418L-30.882,409.519ZM-49.172,388.45C-49.172,388.45 -62.002,414.589 -80.445,423.081C-98.888,431.574 -84.005,440.603 -79.263,437.639C-79.263,437.639 -50.101,436.662 -39.757,393.768C-33.023,365.841 -50.369,388.239 -49.172,388.45ZM48.895,404.649C48.895,404.649 59.721,408.955 54.233,434.307C53.037,439.834 86.932,425.787 60.131,389.937C52.375,379.561 48.895,404.649 48.895,404.649ZM52.469,346.561C52.469,346.561 94.522,363.76 102.382,421.491C102.933,425.543 80.928,423.052 80.928,423.052C80.928,423.052 85.281,396.99 64.186,376.327C44.101,356.655 51.338,344.583 52.469,346.561ZM7.011,339.639C27.108,339.639 43.424,355.955 43.424,376.052C43.424,396.148 27.108,412.464 7.011,412.464C-13.086,412.464 -29.402,396.148 -29.402,376.052C-29.402,355.955 -13.086,339.639 7.011,339.639ZM-30.745,344.311C-30.745,344.311 -76.265,350.309 -80.863,387.782C-82.793,403.511 -69.655,395.531 -59.695,383.642C-45.926,367.207 -30.745,344.311 -30.745,344.311ZM7.011,357.845C17.059,357.845 25.217,366.003 25.217,376.052C25.217,386.1 17.059,394.258 7.011,394.258C-3.037,394.258 -11.195,386.1 -11.195,376.052C-11.195,366.003 -3.037,357.845 7.011,357.845ZM931.372,139.681C1000.64,147.989 1050.14,210.974 1041.83,280.247C1033.52,349.52 970.539,399.015 901.266,390.707C831.993,382.399 782.498,319.413 790.806,250.141C799.114,180.868 862.1,131.373 931.372,139.681ZM2325.78,192.713C2378.13,199.296 2415.29,247.141 2408.7,299.491C2402.12,351.84 2354.27,388.996 2301.93,382.413C2249.58,375.83 2212.42,327.984 2219,275.635C2225.59,223.286 2273.43,186.13 2325.78,192.713ZM935.569,327.539C937.06,330.444 938.891,333.147 941.01,335.596C933.358,340.842 924.629,345.588 914.688,349.66C904.88,345.643 896.252,340.968 888.661,335.796C890.756,333.407 892.575,330.77 894.07,327.935C900.176,332.127 907.034,335.855 914.745,338.984C922.504,335.613 929.412,331.762 935.569,327.539ZM2314.03,301.364L2303.13,306.679C2301.99,307.235 2300.62,306.761 2300.06,305.622L2297.04,299.429L2333.8,281.496L2336.82,287.689C2337.38,288.828 2336.9,290.204 2335.76,290.76L2323.11,296.931L2334.93,315.457L2363.53,315.457L2363.53,303.847C2363.53,302.168 2364.89,300.805 2366.57,300.805L2375.7,300.805L2375.7,340.141L2366.57,340.141C2364.89,340.141 2363.53,338.778 2363.53,337.099L2363.53,325.499L2332.79,325.499C2332.65,325.511 2332.51,325.516 2332.36,325.516C2330.52,325.516 2328.89,324.576 2327.94,323.149L2327.93,323.155L2314.03,301.364ZM858.103,278.35C875.036,278.35 888.783,292.097 888.783,309.03C888.783,325.963 875.036,339.71 858.103,339.71C841.17,339.71 827.423,325.963 827.423,309.03C827.423,292.097 841.17,278.35 858.103,278.35ZM971.743,278.35C988.675,278.35 1002.42,292.097 1002.42,309.03C1002.42,325.963 988.675,339.71 971.743,339.71C954.81,339.71 941.062,325.963 941.062,309.03C941.062,292.097 954.81,278.35 971.743,278.35ZM858.508,268.402C849.596,239.459 852.892,213.001 852.892,213.001C852.892,213.001 898.624,215.632 914.701,196.715C931.907,216.36 976.644,212.102 976.644,212.102C976.644,212.102 981.048,238.775 971.52,268.4C949.198,268.52 931.112,286.679 931.112,309.03C931.112,313.369 931.794,317.55 933.055,321.47C927.649,325.3 921.611,328.826 914.86,331.959C908.063,329.138 901.994,325.811 896.582,322.1C897.976,317.999 898.733,313.602 898.733,309.03C898.733,286.74 880.745,268.618 858.508,268.402ZM845.646,301.154L845.646,305.608L844.89,305.608C843.629,305.608 842.605,306.632 842.605,307.893L842.605,326.172C842.605,327.433 843.629,328.457 844.89,328.457L871.316,328.457C872.577,328.457 873.6,327.433 873.6,326.172L873.6,307.893C873.6,306.632 872.577,305.608 871.316,305.608L870.56,305.608L870.56,301.154C870.56,294.279 864.978,288.697 858.103,288.697C851.228,288.697 845.646,294.279 845.646,301.154ZM856.656,316.739C855.73,316.228 855.103,315.242 855.103,314.111C855.103,312.455 856.447,311.11 858.103,311.11C859.759,311.11 861.103,312.455 861.103,314.111C861.103,315.242 860.476,316.228 859.55,316.739L861.3,322.594L854.906,322.594L856.656,316.739ZM968.967,309.013L962.211,302.258C960.325,300.371 957.262,300.371 955.376,302.258C953.49,304.144 953.49,307.207 955.376,309.093L965.256,318.973C965.344,319.078 965.438,319.18 965.537,319.279C966.483,320.225 967.726,320.697 968.967,320.694C970.208,320.697 971.451,320.225 972.397,319.279C972.496,319.18 972.59,319.078 972.678,318.973L990.438,301.213C992.324,299.327 992.324,296.264 990.438,294.378C988.551,292.492 985.489,292.492 983.602,294.378L968.967,309.013ZM2242.23,279.365L2235.44,282.687L2250.77,314.013L2268.02,305.571L2242.23,279.365ZM2346.92,222.993L2242.18,274.238L2274.39,306.998L2366.07,262.14L2346.92,222.993ZM851.621,301.123L851.621,305.605L864.584,305.605L864.584,301.123C864.584,297.545 861.68,294.641 858.103,294.641C854.526,294.641 851.621,297.545 851.621,301.123ZM841.919,271.756C829.828,232.248 838.209,195.154 838.209,195.154C838.209,195.154 893.976,202.073 914.702,175.724C935.429,202.073 991.195,195.154 991.195,195.154C991.195,195.154 999.541,232.132 987.521,271.582C984.512,270.311 981.318,269.392 977.99,268.878C988.023,235.892 982.337,205.841 982.337,205.841C982.337,205.841 932.561,211.107 914.702,188.403C896.843,211.107 846.956,206.365 846.956,206.365C846.956,206.365 842.886,236.289 852.601,268.77C848.854,269.278 845.268,270.298 841.919,271.756Z" style="fill:url(#_Linear1);"/>
    <defs>
        <linearGradient id="_Linear1" x1="0" y1="0" x2="1" y2="0" gradientUnits="userSpaceOnUse" gradientTransform="matrix(1.06911e-13,1745.98,-1745.98,1.06911e-13,1351.46,-221.872)"><stop offset="0" style="stop-color:white;stop-opacity:1"/><stop offset="1" style="stop-color:white;stop-opacity:0"/></linearGradient>
    </defs>
</svg>
