<?xml version="1.0" encoding="UTF-8" standalone="no"?>
<!DOCTYPE svg PUBLIC "-//W3C//DTD SVG 1.1//EN" "http://www.w3.org/Graphics/SVG/1.1/DTD/svg11.dtd">
<svg width="100%" height="100%" viewBox="0 0 2560 1440" version="1.1" xmlns="http://www.w3.org/2000/svg" xmlns:xlink="http://www.w3.org/1999/xlink" xml:space="preserve" xmlns:serif="http://www.serif.com/" style="fill-rule:evenodd;clip-rule:evenodd;stroke-linejoin:round;stroke-miterlimit:2;">
    <path d="M2300.1,747.74C2278.92,742.915 2257.32,740.156 2235.61,739.499L2218.72,803.427C2198.76,803.922 2178.91,806.611 2159.54,811.448L2126.24,754.323C2105.48,760.735 2085.4,769.144 2066.27,779.431L2083.6,843.24C2066.56,853.649 2050.72,865.901 2036.36,879.776L1978.96,846.954C1964.19,862.884 1951.01,880.208 1939.58,898.683L1986.5,945.276C1976.95,962.81 1969.35,981.342 1963.86,1000.54L1897.73,1000.81C1892.91,1021.99 1890.15,1043.59 1889.49,1065.3L1953.42,1082.19C1953.92,1102.15 1956.61,1122 1961.44,1141.37L1904.32,1174.67C1910.73,1195.43 1919.14,1215.51 1929.43,1234.64L1993.24,1217.31C2003.64,1234.35 2015.9,1250.19 2029.77,1264.55L1996.95,1321.95C2012.88,1336.71 2030.2,1349.9 2048.68,1361.33L2095.27,1314.41C2112.8,1323.96 2131.34,1331.56 2150.53,1337.06L2150.81,1403.18C2171.99,1408 2193.58,1410.76 2215.3,1411.42L2232.19,1347.49C2252.15,1346.99 2271.99,1344.3 2291.37,1339.47L2324.67,1396.59C2345.42,1390.18 2365.5,1381.77 2384.64,1371.48L2367.3,1307.67C2384.34,1297.27 2400.18,1285.01 2414.54,1271.14L2471.94,1303.96C2486.71,1288.03 2499.9,1270.71 2511.32,1252.23L2464.41,1205.64C2473.96,1188.11 2481.55,1169.57 2487.05,1150.38L2553.17,1150.1C2557.99,1128.92 2560.75,1107.33 2561.41,1085.61L2497.48,1068.72C2496.99,1048.76 2494.3,1028.91 2489.46,1009.54L2546.59,976.244C2540.18,955.489 2531.77,935.406 2521.48,916.274L2457.67,933.609C2447.26,916.569 2435.01,900.727 2421.13,886.369L2453.96,828.968C2438.03,814.201 2420.7,801.012 2402.23,789.587L2355.63,836.504C2338.1,826.952 2319.57,819.358 2300.37,813.861L2300.1,747.74ZM-14.222,1032.57C-23.875,1029.77 -33.776,1027.91 -43.788,1027.02L-53.244,1053.94C-62.636,1053.62 -72.034,1054.34 -81.269,1056.08L-94.708,1030.92C-104.468,1033.32 -113.972,1036.66 -123.086,1040.89L-117.818,1068.93C-126.11,1073.35 -133.89,1078.67 -141.017,1084.8L-165.238,1069.73C-172.489,1076.68 -179.049,1084.33 -184.825,1092.56L-166.244,1114.2C-171.214,1122.18 -175.29,1130.68 -178.401,1139.55L-206.913,1138.6C-209.714,1148.25 -211.572,1158.16 -212.461,1168.17L-185.546,1177.62C-185.862,1187.02 -185.143,1196.41 -183.403,1205.65L-208.568,1219.09C-206.166,1228.85 -202.825,1238.35 -198.589,1247.47L-170.552,1242.2C-166.129,1250.49 -160.808,1258.27 -154.684,1265.4L-169.758,1289.62C-162.798,1296.87 -155.152,1303.43 -146.927,1309.2L-125.279,1290.62C-117.304,1295.59 -108.805,1299.67 -99.938,1302.78L-100.882,1331.29C-91.229,1334.09 -81.328,1335.95 -71.316,1336.84L-61.86,1309.92C-52.468,1310.24 -43.07,1309.52 -33.835,1307.78L-20.396,1332.95C-10.636,1330.55 -1.132,1327.2 7.983,1322.97L2.714,1294.93C11.006,1290.51 18.786,1285.19 25.913,1279.06L50.134,1294.14C57.385,1287.18 63.945,1279.53 69.721,1271.31L51.14,1249.66C56.11,1241.68 60.187,1233.18 63.297,1224.32L91.809,1225.26C94.61,1215.61 96.468,1205.71 97.357,1195.7L70.442,1186.24C70.758,1176.85 70.039,1167.45 68.299,1158.21L93.464,1144.78C91.063,1135.02 87.721,1125.51 83.485,1116.4L55.448,1121.66C51.026,1113.37 45.704,1105.59 39.58,1098.47L54.654,1074.25C47.694,1066.99 40.048,1060.43 31.823,1054.66L10.175,1073.24C2.2,1068.27 -6.298,1064.19 -15.166,1061.08L-14.222,1032.57ZM265.684,1025.97C256.802,1024.49 247.807,1023.77 238.801,1023.84L230.731,1052.17C221.398,1052.85 212.169,1054.56 203.209,1057.26L185.551,1033.68C177.115,1036.83 168.968,1040.71 161.203,1045.27L168.379,1073.84C160.636,1079.1 153.496,1085.19 147.086,1092.01L120.005,1080.42C114.276,1087.37 109.16,1094.8 104.717,1102.63L125.216,1123.79C121.138,1132.21 118,1141.05 115.857,1150.16L86.61,1153.67C85.123,1162.55 84.409,1171.54 84.478,1180.55L112.807,1188.62C113.487,1197.95 115.192,1207.18 117.891,1216.14L94.314,1233.8C97.467,1242.24 101.346,1250.38 105.909,1258.15L134.478,1250.97C139.733,1258.71 145.824,1265.86 152.642,1272.27L141.052,1299.35C148.001,1305.08 155.434,1310.19 163.268,1314.63L184.422,1294.13C192.844,1298.21 201.689,1301.35 210.798,1303.49L214.302,1332.74C223.184,1334.23 232.179,1334.94 241.185,1334.87L249.256,1306.54C258.588,1305.86 267.818,1304.16 276.777,1301.46L294.435,1325.04C302.872,1321.88 311.018,1318.01 318.783,1313.44L311.608,1284.87C319.35,1279.62 326.491,1273.53 332.9,1266.71L359.981,1278.3C365.711,1271.35 370.826,1263.92 375.269,1256.08L354.77,1234.93C358.848,1226.51 361.987,1217.66 364.129,1208.55L393.376,1205.05C394.864,1196.17 395.577,1187.17 395.508,1178.17L367.179,1170.1C366.499,1160.76 364.795,1151.53 362.095,1142.57L385.672,1124.92C382.519,1116.48 378.64,1108.33 374.077,1100.57L345.508,1107.74C340.253,1100 334.162,1092.86 327.345,1086.45L338.934,1059.37C331.985,1053.64 324.552,1048.53 316.718,1044.08L295.565,1064.58C287.142,1060.5 278.297,1057.37 269.188,1055.22L265.684,1025.97ZM2807.4,808.975C2792.01,807.335 2776.5,807.189 2761.09,808.541L2754.48,855.14C2740.4,857.159 2726.59,860.722 2713.29,865.765L2684.97,828.174C2670.82,834.446 2657.32,842.073 2644.65,850.951L2662.23,894.61C2651.04,903.399 2640.86,913.392 2631.86,924.41L2588.54,906.015C2579.43,918.519 2571.55,931.876 2565.01,945.9L2602.06,974.921C2596.77,988.124 2592.95,1001.87 2590.67,1015.91L2543.95,1021.64C2542.31,1037.03 2542.17,1052.53 2543.52,1067.95L2590.12,1074.55C2592.14,1088.63 2595.7,1102.45 2600.74,1115.75L2563.15,1144.07C2569.42,1158.21 2577.05,1171.72 2585.93,1184.39L2629.59,1166.81C2638.38,1178 2648.37,1188.18 2659.39,1197.18L2640.99,1240.5C2653.5,1249.61 2666.85,1257.49 2680.88,1264.03L2709.9,1226.97C2723.1,1232.27 2736.85,1236.09 2750.89,1238.37L2756.62,1285.09C2772,1286.73 2787.51,1286.87 2802.92,1285.52L2809.53,1238.92C2823.61,1236.9 2837.43,1233.34 2850.73,1228.3L2879.05,1265.89C2893.19,1259.61 2906.69,1251.99 2919.37,1243.11L2901.79,1199.45C2912.97,1190.66 2923.16,1180.67 2932.15,1169.65L2975.47,1188.05C2984.59,1175.54 2992.47,1162.18 2999,1148.16L2961.95,1119.14C2967.24,1105.94 2971.06,1092.19 2973.35,1078.15L3020.06,1072.42C3021.7,1057.03 3021.85,1041.53 3020.5,1026.11L2973.9,1019.51C2971.88,1005.43 2968.32,991.611 2963.27,978.31L3000.86,949.99C2994.59,935.846 2986.96,922.343 2978.09,909.671L2934.43,927.249C2925.64,916.065 2915.64,905.882 2904.63,896.884L2923.02,853.563C2910.52,844.45 2897.16,836.57 2883.14,830.034L2854.12,867.087C2840.91,861.795 2827.17,857.974 2813.13,855.69L2807.4,808.975ZM-41.859,1098.3C4.298,1106.96 34.74,1151.47 26.079,1197.62C17.418,1243.78 -27.088,1274.22 -73.245,1265.56C-119.402,1256.9 -149.844,1212.4 -141.183,1166.24C-132.522,1120.08 -88.016,1089.64 -41.859,1098.3ZM246.721,1094.53C293.536,1098.25 328.53,1139.27 324.817,1186.09C321.104,1232.9 280.081,1267.89 233.266,1264.18C186.45,1260.47 151.456,1219.45 155.169,1172.63C158.882,1125.82 199.905,1090.82 246.721,1094.53ZM2248.76,893.042C2349.44,905.906 2420.73,998.088 2407.87,1098.77C2395,1199.44 2302.82,1270.74 2202.14,1257.87C2101.47,1245.01 2030.17,1152.83 2043.04,1052.15C2055.9,951.472 2148.08,880.178 2248.76,893.042ZM284.399,1151.9L183.285,1151.9L183.285,1209.8L284.399,1209.8L284.399,1151.9ZM1717.82,656.765C1700.26,652.766 1682.36,650.478 1664.36,649.934L1650.33,701.925C1633.71,702.337 1617.18,704.577 1601.05,708.604L1573.69,662.222C1556.49,667.537 1539.84,674.508 1523.98,683.036L1537.83,735.076C1523.64,743.742 1510.45,753.944 1498.49,765.497L1451.61,739.01C1439.37,752.215 1428.43,766.576 1418.96,781.891L1456.97,820.035C1449.02,834.635 1442.7,850.065 1438.12,866.048L1384.27,866.552C1380.27,884.11 1377.99,902.013 1377.44,920.012L1429.43,934.039C1429.84,950.66 1432.08,967.184 1436.11,983.315L1389.73,1010.68C1395.04,1027.88 1402.02,1044.53 1410.54,1060.39L1462.58,1046.54C1471.25,1060.73 1481.45,1073.92 1493,1085.88L1466.52,1132.76C1479.72,1145 1494.08,1155.94 1509.4,1165.41L1547.54,1127.39C1562.14,1135.35 1577.57,1141.67 1593.56,1146.25L1594.06,1200.1C1611.62,1204.1 1629.52,1206.38 1647.52,1206.93L1661.55,1154.94C1678.17,1154.52 1694.69,1152.29 1710.82,1148.26L1738.18,1194.64C1755.39,1189.32 1772.04,1182.35 1787.89,1173.83L1774.05,1121.79C1788.24,1113.12 1801.43,1102.92 1813.38,1091.36L1860.27,1117.85C1872.51,1104.65 1883.44,1090.29 1892.91,1074.97L1854.9,1036.83C1862.86,1022.23 1869.18,1006.8 1873.76,990.813L1927.6,990.309C1931.6,972.752 1933.89,954.848 1934.43,936.85L1882.44,922.822C1882.03,906.202 1879.79,889.677 1875.76,873.547L1922.15,846.186C1916.83,828.982 1909.86,812.333 1901.33,796.474L1849.29,810.321C1840.63,796.133 1830.42,782.942 1818.87,770.986L1845.36,724.1C1832.15,711.859 1817.79,700.926 1802.48,691.455L1764.33,729.467C1749.73,721.513 1734.3,715.19 1718.32,710.613L1717.82,656.765ZM206.862,1174.43L239.873,1196.47L239.885,1183.18L261.533,1189.35L229.8,1165.84L228.853,1179.32L206.862,1174.43ZM301.406,1171.36C301.406,1169.51 299.903,1168 298.052,1168L290.207,1168L290.207,1194.32L298.04,1194.32C299.898,1194.32 301.406,1192.81 301.406,1190.95L301.406,1171.36ZM2128.9,1167.56L2128.9,1124.41L2108.1,1124.41L2108.1,1161.33C2108.1,1177.34 2121.1,1190.34 2137.11,1190.34L2174.55,1190.34L2174.55,1167.56L2128.9,1167.56ZM2201.88,1190.34L2185.89,1190.34L2185.89,1167.56L2201.88,1167.56L2201.88,1190.34ZM2228.44,1190.34L2213.22,1190.34L2213.22,1167.56L2228.44,1167.56L2228.44,1190.34ZM2257.33,1190.34L2239.78,1190.34L2239.78,1167.56L2257.33,1167.56L2257.33,1190.34ZM2314.5,1124.41L2314.5,1167.56L2268.67,1167.56L2268.67,1190.34L2306.29,1190.34C2322.3,1190.34 2335.3,1177.34 2335.3,1161.33L2335.3,1124.41L2314.5,1124.41ZM2783.24,916.049C2855.53,916.727 2913.67,975.969 2912.99,1048.26C2912.31,1120.55 2853.07,1178.69 2780.78,1178.01C2708.49,1177.33 2650.35,1118.09 2651.03,1045.8C2651.7,973.51 2710.95,915.371 2783.24,916.049ZM2147.92,1092.47L2173.46,1092.47L2183.95,1073.59L2203.48,1104.73L2226.16,1066.05L2252.08,1125.55L2277.65,1077.5L2295.49,1077.5L2295.49,1148.89L2147.92,1148.89L2147.92,1092.47ZM1138.99,460.355C1117.34,456.55 1095.37,454.853 1073.4,455.288L1059.66,522.112C1039.61,523.614 1019.79,527.318 1000.55,533.157L963.606,475.803C942.954,483.333 923.081,492.848 904.265,504.213L925.78,568.953C909.168,580.278 893.852,593.398 880.11,608.075L819.441,576.874C805.321,593.721 792.868,611.898 782.256,631.149L833.258,676.457C824.534,694.572 817.83,713.592 813.267,733.173L745.127,736.487C741.322,758.137 739.625,780.105 740.06,802.083L806.884,815.82C808.386,835.87 812.09,855.694 817.929,874.933L760.575,911.873C768.105,932.525 777.62,952.398 788.985,971.214L853.725,949.699C865.05,966.312 878.17,981.627 892.847,995.37L861.646,1056.04C878.493,1070.16 896.67,1082.61 915.921,1093.22L961.229,1042.22C979.344,1050.94 998.364,1057.65 1017.95,1062.21L1021.26,1130.35C1042.91,1134.16 1064.88,1135.85 1086.86,1135.42L1100.59,1068.6C1120.64,1067.09 1140.47,1063.39 1159.7,1057.55L1196.64,1114.9C1217.3,1107.37 1237.17,1097.86 1255.99,1086.49L1234.47,1021.75C1251.08,1010.43 1266.4,997.309 1280.14,982.633L1340.81,1013.83C1354.93,996.986 1367.38,978.809 1378,959.559L1326.99,914.25C1335.72,896.135 1342.42,877.116 1346.98,857.534L1415.12,854.22C1418.93,832.57 1420.63,810.602 1420.19,788.625L1353.37,774.887C1351.87,754.837 1348.16,735.014 1342.32,715.774L1399.68,678.834C1392.15,658.182 1382.63,638.309 1371.27,619.493L1306.53,641.008C1295.2,624.396 1282.08,609.08 1267.4,595.338L1298.61,534.669C1281.76,520.55 1263.58,508.096 1244.33,497.484L1199.02,548.486C1180.91,539.762 1161.89,533.058 1142.31,528.495L1138.99,460.355ZM-240.676,716.846C-253.664,713.129 -266.981,710.68 -280.441,709.534L-293.092,748.166C-305.539,747.792 -317.99,748.79 -330.219,751.141L-348.86,715.015C-361.965,718.29 -374.723,722.828 -386.953,728.565L-378.593,768.347C-389.559,774.247 -399.843,781.337 -409.259,789.487L-443.465,767.522C-453.177,776.911 -461.956,787.219 -469.68,798.303L-442.548,828.575C-449.096,839.168 -454.457,850.45 -458.536,862.216L-499.142,860.296C-502.858,873.284 -505.307,886.601 -506.454,900.061L-467.821,912.712C-468.195,925.159 -467.197,937.61 -464.847,949.84L-500.972,968.48C-497.697,981.586 -493.159,994.343 -487.422,1006.57L-447.64,998.213C-441.74,1009.18 -434.651,1019.46 -426.5,1028.88L-448.466,1063.09C-439.077,1072.8 -428.768,1081.58 -417.685,1089.3L-387.412,1062.17C-376.819,1068.72 -365.538,1074.08 -353.771,1078.16L-355.691,1118.76C-342.704,1122.48 -329.387,1124.93 -315.927,1126.07L-303.276,1087.44C-290.828,1087.82 -278.377,1086.82 -266.148,1084.47L-247.508,1120.59C-234.402,1117.32 -221.644,1112.78 -209.414,1107.04L-217.775,1067.26C-206.808,1061.36 -196.524,1054.27 -187.108,1046.12L-152.903,1068.09C-143.19,1058.7 -134.411,1048.39 -126.688,1037.31L-153.819,1007.03C-147.272,996.439 -141.91,985.158 -137.831,973.392L-97.226,975.311C-93.509,962.324 -91.06,949.007 -89.914,935.547L-128.546,922.896C-128.172,910.448 -129.17,897.997 -131.521,885.768L-95.395,867.128C-98.67,854.022 -103.208,841.265 -108.945,829.035L-148.727,837.395C-154.627,826.428 -161.717,816.144 -169.867,806.728L-147.902,772.523C-157.291,762.81 -167.599,754.031 -178.683,746.308L-208.955,773.439C-219.548,766.892 -230.83,761.53 -242.596,757.451L-240.676,716.846ZM2335.3,1095.52L2335.3,1113.07L2314.5,1113.07L2314.5,1095.52L2335.3,1095.52ZM2108.1,1113.07L2108.1,1095.52L2128.9,1095.52L2128.9,1113.07L2108.1,1113.07ZM2295.49,1066.6L2267.28,1066.6L2254.48,1094.24L2226.61,1031.21L2204.18,1079.16L2184.05,1049.39L2168.91,1076.47L2147.92,1076.47L2147.92,1004.04L2295.49,1004.04L2295.49,1066.6ZM2108.1,1084.18L2108.1,1068.95L2128.9,1068.95L2128.9,1084.18L2108.1,1084.18ZM2335.3,1068.95L2335.3,1084.18L2314.5,1084.18L2314.5,1068.95L2335.3,1068.95ZM1675.26,777.215C1758.72,787.879 1817.82,864.294 1807.15,947.752C1796.49,1031.21 1720.07,1090.31 1636.62,1079.65C1553.16,1068.98 1494.06,992.567 1504.72,909.109C1515.39,825.651 1591.8,766.551 1675.26,777.215ZM562.978,534.362C546.258,529.667 529.122,526.604 511.811,525.216L495.779,575.569C479.819,575.17 463.863,576.528 448.2,579.62L423.888,532.701C407.06,536.995 390.688,542.91 375.002,550.364L386.295,601.987C372.273,609.621 359.135,618.775 347.116,629.284L302.601,600.807C290.175,612.94 278.955,626.249 269.097,640.547L304.688,679.607C296.362,693.23 289.561,707.727 284.407,722.837L231.617,720.433C226.923,737.153 223.86,754.289 222.472,771.6L272.825,787.632C272.425,803.592 273.784,819.548 276.875,835.211L229.956,859.523C234.251,876.351 240.166,892.723 247.62,908.409L299.243,897.116C306.877,911.137 316.031,924.276 326.54,936.295L298.063,980.81C310.196,993.236 323.505,1004.46 337.803,1014.31L376.863,978.723C390.485,987.049 404.983,993.85 420.093,999.004L417.689,1051.79C434.409,1056.49 451.545,1059.55 468.856,1060.94L484.888,1010.59C500.848,1010.99 516.804,1009.63 532.467,1006.54L556.779,1053.45C573.607,1049.16 589.978,1043.25 605.664,1035.79L594.371,984.168C608.393,976.534 621.532,967.38 633.551,956.871L678.065,985.348C690.491,973.215 701.712,959.906 711.57,945.608L675.978,906.548C684.304,892.926 691.106,878.428 696.26,863.318L749.049,865.722C753.744,849.002 756.807,831.866 758.195,814.555L707.842,798.523C708.241,782.563 706.883,766.607 703.791,750.944L750.71,726.632C746.416,709.804 740.501,693.433 733.047,677.747L681.424,689.04C673.79,675.018 664.636,661.879 654.127,649.86L682.603,605.345C670.471,592.919 657.162,581.699 642.864,571.841L603.804,607.433C590.181,599.107 575.684,592.305 560.574,587.151L562.978,534.362ZM2335.3,1041.62L2335.3,1057.61L2314.5,1057.61L2314.5,1041.62L2335.3,1041.62ZM2108.1,1057.61L2108.1,1041.62L2128.9,1041.62L2128.9,1057.61L2108.1,1057.61ZM-277.501,805.325C-215.422,816.74 -174.29,876.408 -185.705,938.487C-197.12,1000.57 -256.788,1041.7 -318.867,1030.28C-380.946,1018.87 -422.078,959.2 -410.663,897.121C-399.247,835.042 -339.579,793.91 -277.501,805.325ZM2268.67,962.584L2268.67,985.368L2314.5,985.368L2314.5,1030.28L2335.3,1030.28L2335.3,991.596C2335.3,975.584 2322.3,962.584 2306.29,962.584L2268.67,962.584ZM2128.9,985.368L2174.55,985.368L2174.55,962.584L2137.11,962.584C2121.1,962.584 2108.1,975.584 2108.1,991.596L2108.1,1030.28L2128.9,1030.28L2128.9,985.368ZM1672.32,979.062C1672.33,979.14 1672.33,979.218 1672.33,979.298L1672.33,983.709C1672.33,984.927 1671.34,985.915 1670.13,985.915L1635.43,985.915C1634.22,985.915 1633.23,984.927 1633.23,983.709L1633.23,979.298C1633.23,979.218 1633.23,979.14 1633.24,979.062L1541.69,979.062L1541.69,988.498C1541.69,993.705 1545.92,997.933 1551.13,997.933L1754.43,997.933C1759.64,997.933 1763.87,993.705 1763.87,988.498L1763.87,979.062L1672.32,979.062ZM2201.88,985.368L2185.89,985.368L2185.89,962.584L2201.88,962.584L2201.88,985.368ZM2257.33,985.368L2239.78,985.368L2239.78,962.584L2257.33,962.584L2257.33,985.368ZM2228.44,985.368L2213.22,985.368L2213.22,962.584L2228.44,962.584L2228.44,985.368ZM1094.46,609.808C1196.86,617.717 1273.58,707.279 1265.67,809.684C1257.76,912.089 1168.2,988.808 1065.8,980.899C963.39,972.99 886.671,883.429 894.58,781.023C902.489,678.618 992.051,601.899 1094.46,609.808ZM1743.78,857.784C1743.78,854.021 1740.72,850.966 1736.96,850.966L1568.71,850.966C1564.95,850.966 1561.9,854.021 1561.9,857.784L1561.9,972.19L1743.78,972.19L1743.78,857.784ZM1730.29,866.483L1575.45,866.483L1575.45,956.903L1730.29,956.903L1730.29,866.483ZM516.203,648.345C596.084,662.623 649.344,739.067 635.066,818.948C620.788,898.828 544.344,952.089 464.463,937.811C384.583,923.533 331.322,847.088 345.6,767.208C359.878,687.327 436.323,634.067 516.203,648.345ZM1010.1,917.22L1010.1,895.263L1021.57,895.263L1021.57,917.22L1030.59,917.22L1030.59,895.263L1042.05,895.263L1042.05,917.22L1051.62,917.22L1051.62,895.263L1063.09,895.263L1063.09,917.22L1181.52,917.22L1181.52,674.374L980.851,674.374L980.851,917.22L1010.1,917.22ZM1105.06,828.651C1104.86,828.086 1104.75,827.479 1104.75,826.846C1104.75,823.877 1107.16,821.467 1110.13,821.467C1111.88,821.467 1113.43,822.302 1114.41,823.594L1148.2,862.704C1150.53,865.294 1151.94,868.716 1151.94,872.466C1151.94,880.541 1145.38,887.098 1137.31,887.098C1130.93,887.098 1125.5,883.005 1123.5,877.304L1105.06,828.651ZM597.354,753.247L561.233,753.247L561.233,866.332L597.354,866.332L597.354,753.247ZM491.934,848.361L440.076,848.361L430.625,865.996L501.384,865.996L491.934,848.361ZM1103.86,854.03C1096.55,856.196 1088.81,857.358 1080.8,857.358C1036.01,857.358 999.647,820.994 999.647,776.202C999.647,731.411 1036.01,695.047 1080.8,695.047C1125.59,695.047 1161.96,731.411 1161.96,776.202C1161.96,798.826 1152.68,819.301 1137.73,834.022L1123.28,817.3C1120.37,813.477 1115.78,811.008 1110.61,811.008C1101.83,811.008 1094.69,818.138 1094.69,826.921C1094.69,828.794 1095.02,830.591 1095.62,832.261L1103.86,854.03ZM546.911,723.312L385.218,723.312L385.218,839.8L546.911,839.8L546.911,723.312ZM583.335,829.087L574.826,829.087L574.826,819.887L583.335,819.887L583.335,829.087ZM529.794,739.341L402.335,739.341L402.335,823.772L529.794,823.772L529.794,739.341ZM2661.42,340.207C2646.37,336.624 2631.01,334.509 2615.55,333.89L2603.05,377.591C2588.7,377.807 2574.42,379.6 2560.47,382.94L2537.55,343.689C2522.72,348.112 2508.36,353.962 2494.66,361.156L2505.68,405.253C2493.37,412.612 2481.9,421.305 2471.48,431.174L2432.01,408.643C2421.38,419.886 2411.86,432.134 2403.6,445.213L2435.19,477.89C2428.21,490.421 2422.62,503.684 2418.54,517.439L2373.08,517.663C2369.5,532.715 2367.39,548.079 2366.77,563.538L2410.47,576.039C2410.68,590.385 2412.48,604.664 2415.82,618.618L2376.57,641.54C2380.99,656.366 2386.84,670.729 2394.03,684.427L2438.13,673.402C2445.49,685.719 2454.18,697.188 2464.05,707.602L2441.52,747.078C2452.76,757.707 2465.01,767.221 2478.09,775.486L2510.77,743.89C2523.3,750.877 2536.56,756.463 2550.32,760.548L2550.54,806.001C2565.59,809.584 2580.95,811.699 2596.41,812.318L2608.91,768.617C2623.26,768.401 2637.54,766.608 2651.49,763.268L2674.42,802.519C2689.24,798.096 2703.61,792.246 2717.3,785.052L2706.28,740.955C2718.6,733.596 2730.06,724.903 2740.48,715.034L2779.95,737.565C2790.58,726.322 2800.1,714.074 2808.36,700.995L2776.77,668.318C2783.75,655.786 2789.34,642.524 2793.42,628.769L2838.88,628.544C2842.46,613.493 2844.58,598.129 2845.19,582.67L2801.49,570.169C2801.28,555.823 2799.48,541.544 2796.14,527.59L2835.39,504.668C2830.97,489.842 2825.12,475.479 2817.93,461.781L2773.83,472.806C2766.47,460.489 2757.78,449.02 2747.91,438.606L2770.44,399.13C2759.2,388.501 2746.95,378.987 2733.87,370.722L2701.2,402.317C2688.66,395.331 2675.4,389.745 2661.65,385.66L2661.42,340.207ZM583.335,769.421L574.826,769.421L574.826,809.546L583.335,809.546L583.335,769.421ZM91.373,146.563C70.462,140.683 49.03,136.845 27.378,135.101L7.291,198.552C-12.637,198.045 -32.56,199.734 -52.118,203.587L-82.598,144.423C-103.648,149.786 -124.128,157.178 -143.751,166.494L-129.421,231.487C-146.932,241.013 -163.341,252.437 -178.353,265.553L-234.332,229.555C-249.879,244.725 -263.92,261.366 -276.256,279.245L-231.35,328.366C-241.752,345.371 -250.251,363.469 -256.693,382.333L-323.171,379.148C-329.051,400.059 -332.89,421.491 -334.634,443.143L-271.183,463.23C-271.689,483.158 -270,503.081 -266.147,522.639L-325.311,553.119C-319.948,574.169 -312.556,594.649 -303.241,614.272L-238.247,599.942C-228.722,617.453 -217.298,633.862 -204.182,648.874L-240.179,704.853C-225.01,720.4 -208.368,734.441 -190.489,746.777L-141.368,701.871C-124.363,712.273 -106.265,720.772 -87.401,727.214L-90.586,793.692C-69.675,799.572 -48.243,803.411 -26.591,805.155L-6.504,741.704C13.424,742.21 33.346,740.521 52.904,736.668L83.385,795.832C104.434,790.469 124.914,783.077 144.538,773.762L130.208,708.768C147.719,699.243 164.128,687.819 179.139,674.703L235.118,710.7C250.666,695.531 264.707,678.889 277.043,661.01L232.136,611.889C242.539,594.884 251.037,576.786 257.48,557.922L323.958,561.107C329.838,540.196 333.676,518.764 335.42,497.112L271.969,477.025C272.476,457.097 270.787,437.175 266.934,417.617L326.098,387.136C320.735,366.087 313.343,345.607 304.027,325.983L239.034,340.313C229.508,322.802 218.084,306.393 204.968,291.382L240.966,235.403C225.796,219.855 209.155,205.814 191.276,193.478L142.155,238.385C125.15,227.982 107.052,219.484 88.188,213.041L91.373,146.563ZM1080.8,755.049C1092.48,755.049 1101.96,764.527 1101.96,776.202C1101.96,787.877 1092.48,797.356 1080.8,797.356C1069.13,797.356 1059.65,787.877 1059.65,776.202C1059.65,764.527 1069.13,755.049 1080.8,755.049ZM1081,766.173C1086.61,766.173 1091.16,770.724 1091.16,776.329C1091.16,781.935 1086.61,786.486 1081,786.486C1075.4,786.486 1070.85,781.935 1070.85,776.329C1070.85,770.724 1075.4,766.173 1081,766.173ZM1041.26,751.391C1049.45,737.871 1064.3,728.829 1081.25,728.829L1081.52,728.83L1081.52,740.514C1081.43,740.513 1081.34,740.513 1081.25,740.513C1069.04,740.513 1058.28,746.773 1052,756.254L1041.26,751.391ZM1022.6,742.946C1034.07,722.377 1056.05,708.451 1081.25,708.451L1081.52,708.452L1081.52,721.238L1081.25,721.237C1061.23,721.237 1043.72,732.097 1034.3,748.241L1022.6,742.946ZM2095.63,350C2083.11,347.174 2070.34,345.569 2057.51,345.206L2047.54,380.708C2035.58,381.028 2023.69,382.664 2012.08,385.587L1992.9,354.095C1980.64,357.908 1968.78,362.901 1957.49,369.003L1966.6,404.733C1956.4,410.993 1946.92,418.355 1938.33,426.689L1905.97,409.009C1897.26,418.44 1889.49,428.693 1882.76,439.625L1908.52,466.009C1902.82,476.53 1898.29,487.647 1895.02,499.16L1858.15,500.028C1855.32,512.55 1853.72,525.316 1853.36,538.148L1888.86,548.117C1889.18,560.081 1890.81,571.973 1893.74,583.579L1862.25,602.764C1866.06,615.021 1871.05,626.88 1877.15,638.173L1912.88,629.056C1919.14,639.257 1926.51,648.738 1934.84,657.328L1917.16,689.688C1926.59,698.396 1936.84,706.17 1947.78,712.9L1974.16,687.138C1984.68,692.843 1995.8,697.373 2007.31,700.645L2008.18,737.51C2020.7,740.336 2033.47,741.941 2046.3,742.303L2056.27,706.801C2068.23,706.481 2080.12,704.845 2091.73,701.923L2110.91,733.415C2123.17,729.601 2135.03,724.609 2146.32,718.506L2137.21,682.776C2147.41,676.517 2156.89,669.154 2165.48,660.821L2197.84,678.501C2206.55,669.07 2214.32,658.816 2221.05,647.885L2195.29,621.501C2200.99,610.98 2205.52,599.862 2208.8,588.35L2245.66,587.482C2248.49,574.96 2250.09,562.194 2250.45,549.362L2214.95,539.393C2214.63,527.429 2213,515.537 2210.07,503.931L2241.57,484.746C2237.75,472.489 2232.76,460.63 2226.66,449.336L2190.93,458.454C2184.67,448.253 2177.3,438.772 2168.97,430.182L2186.65,397.822C2177.22,389.113 2166.97,381.34 2156.03,374.61L2129.65,400.371C2119.13,394.667 2108.01,390.137 2096.5,386.865L2095.63,350ZM2623.85,443.342C2695.47,453.203 2745.6,519.353 2735.74,590.971C2725.88,662.589 2659.73,712.728 2588.11,702.866C2516.49,693.005 2466.36,626.854 2476.22,555.237C2486.08,483.619 2552.23,433.48 2623.85,443.342ZM1706.04,220.057C1691.93,216.957 1677.55,215.233 1663.11,214.908L1652.16,256.39C1638.8,256.824 1625.54,258.727 1612.59,262.064L1590.43,225.33C1576.66,229.701 1563.35,235.397 1550.67,242.339L1561.94,283.735C1550.59,290.79 1540.05,299.072 1530.51,308.433L1492.95,287.7C1483.21,298.372 1474.52,309.963 1467.02,322.31L1497.47,352.529C1491.17,364.314 1486.18,376.756 1482.6,389.632L1439.71,390.457C1436.61,404.569 1434.88,418.949 1434.56,433.394L1476.04,444.338C1476.48,457.695 1478.38,470.964 1481.72,483.905L1444.98,506.066C1449.35,519.838 1455.05,533.153 1461.99,545.826L1503.39,534.562C1510.44,545.913 1518.72,556.453 1528.09,565.991L1507.35,603.55C1518.02,613.291 1529.62,621.975 1541.96,629.479L1572.18,599.026C1583.97,605.329 1596.41,610.316 1609.28,613.896L1610.11,656.789C1624.22,659.889 1638.6,661.614 1653.05,661.939L1663.99,620.457C1677.35,620.023 1690.62,618.12 1703.56,614.783L1725.72,651.517C1739.49,647.146 1752.81,641.449 1765.48,634.508L1754.22,593.112C1765.57,586.057 1776.11,577.775 1785.64,568.414L1823.2,589.147C1832.94,578.475 1841.63,566.884 1849.13,554.537L1818.68,524.318C1824.98,512.533 1829.97,500.09 1833.55,487.215L1876.44,486.39C1879.54,472.278 1881.27,457.898 1881.59,443.453L1840.11,432.509C1839.67,419.151 1837.77,405.883 1834.43,392.942L1871.17,370.781C1866.8,357.009 1861.1,343.694 1854.16,331.021L1812.76,342.284C1805.71,330.934 1797.43,320.394 1788.07,310.855L1808.8,273.296C1798.13,263.555 1786.54,254.872 1774.19,247.368L1743.97,277.82C1732.18,271.518 1719.74,266.531 1706.87,262.951L1706.04,220.057ZM32.816,289.11C132.723,307.005 199.306,402.644 181.411,502.551C163.516,602.457 67.877,669.04 -32.03,651.145C-131.936,633.251 -198.519,537.611 -180.624,437.705C-162.73,337.798 -67.09,271.215 32.816,289.11ZM2065.47,435.928C2124.98,443.412 2167.22,497.803 2159.73,557.315C2152.25,616.826 2097.86,659.066 2038.35,651.582C1978.83,644.098 1936.59,589.707 1944.08,530.195C1951.56,470.684 2005.95,428.444 2065.47,435.928ZM2013.3,616.615C2012.01,617.318 2010.52,617.717 2008.95,617.717C2003.92,617.717 1999.83,613.63 1999.83,608.596C1999.83,605.674 2001.21,603.07 2003.35,601.401L2017.05,585.425C2017.09,585.444 2017.12,585.464 2017.16,585.483C2027.28,591.035 2038.91,594.193 2051.26,594.193C2063.64,594.193 2075.29,591.022 2085.43,585.449L2100.76,603.312L2100.74,603.332C2101.79,604.82 2102.41,606.636 2102.41,608.596C2102.41,613.63 2098.32,617.717 2093.29,617.717C2091.46,617.717 2089.75,617.177 2088.33,616.248L2088.32,616.259C2077.65,609.143 2064.84,604.992 2051.07,604.992C2037.07,604.992 2024.07,609.28 2013.3,616.615ZM2051.26,463.062C2084.39,463.062 2111.28,489.955 2111.28,523.079C2111.28,556.204 2084.39,583.097 2051.26,583.097C2018.14,583.097 1991.25,556.204 1991.25,523.079C1991.25,489.955 2018.14,463.062 2051.26,463.062ZM1672.64,316.97C1739.67,325.009 1787.57,385.957 1779.53,452.99C1771.49,520.022 1710.54,567.917 1643.51,559.877C1576.48,551.838 1528.58,490.889 1536.62,423.857C1544.66,356.825 1605.61,308.93 1672.64,316.97ZM2051.26,493.071C2067.83,493.071 2081.27,506.517 2081.27,523.079C2081.27,539.642 2067.83,553.088 2051.26,553.088C2034.7,553.088 2021.26,539.642 2021.26,523.079C2021.26,506.517 2034.7,493.071 2051.26,493.071ZM2051.26,510.616C2058.14,510.616 2063.73,516.201 2063.73,523.079C2063.73,529.958 2058.14,535.543 2051.26,535.543C2044.38,535.543 2038.8,529.958 2038.8,523.079C2038.8,516.201 2044.38,510.616 2051.26,510.616ZM1729.27,516.035L1587.11,516.035L1587.11,479.998L1729.27,479.998L1729.27,516.035ZM1640.75,490.955L1634.7,506.879L1640,506.879L1646.05,490.955L1640.75,490.955ZM1653.49,490.955L1647.43,506.879L1652.73,506.879L1658.79,490.955L1653.49,490.955ZM1614.99,490.955L1608.94,506.879L1614.24,506.879L1620.29,490.955L1614.99,490.955ZM1628,490.955L1621.94,506.879L1627.24,506.879L1633.3,490.955L1628,490.955ZM1601.75,490.955L1595.7,506.879L1601,506.879L1607.05,490.955L1601.75,490.955ZM1712.28,492.951C1715.44,492.951 1718.01,495.519 1718.01,498.682C1718.01,501.846 1715.44,504.414 1712.28,504.414C1709.11,504.414 1706.55,501.846 1706.55,498.682C1706.55,495.519 1709.11,492.951 1712.28,492.951ZM965.889,39.529C951.305,36.326 936.445,34.544 921.517,34.208L910.193,76.64C896.357,77.089 882.613,79.06 869.208,82.517L846.416,44.978C832.184,49.495 818.423,55.382 805.327,62.555L816.736,104.964C804.979,112.272 794.062,120.851 784.182,130.547L745.673,109.433C735.607,120.461 726.633,132.44 718.878,145.2L749.963,176.223C743.435,188.429 738.27,201.318 734.561,214.655L690.655,215.624C687.451,230.208 685.669,245.068 685.333,259.997L727.765,271.321C728.215,285.156 730.186,298.9 733.642,312.305L696.103,335.097C700.621,349.329 706.507,363.09 713.681,376.186L756.09,364.777C763.397,376.534 771.976,387.451 781.672,397.332L760.558,435.84C771.587,445.907 783.565,454.88 796.325,462.635L827.348,431.55C839.555,438.078 852.443,443.244 865.78,446.952L866.749,490.858C881.333,494.062 896.194,495.844 911.122,496.18L922.446,453.748C936.282,453.299 950.026,451.328 963.43,447.871L986.223,485.41C1000.46,480.892 1014.22,475.006 1027.31,467.832L1015.9,425.423C1027.66,418.116 1038.58,409.537 1048.46,399.841L1086.96,420.955C1097.03,409.927 1106.01,397.948 1113.76,385.188L1082.67,354.165C1089.2,341.958 1094.37,329.07 1098.08,315.733L1141.98,314.764C1145.19,300.18 1146.97,285.319 1147.31,270.391L1104.87,259.067C1104.42,245.232 1102.45,231.487 1099,218.083L1136.54,195.291C1132.02,181.058 1126.13,167.298 1118.96,154.202L1076.55,165.611C1069.24,153.854 1060.66,142.936 1050.97,133.056L1072.08,94.548C1061.05,84.481 1049.07,75.508 1036.31,67.753L1005.29,98.838C993.084,92.309 980.195,87.144 966.858,83.436L965.889,39.529ZM1729.27,358.155L1587.11,358.155L1587.11,468.082L1729.27,468.082L1729.27,358.155ZM2352.32,117.126C2341.3,114.64 2330.07,113.228 2318.78,112.909L2310.06,145.911C2299.67,146.189 2289.34,147.61 2279.25,150.149L2261.95,120.728C2251.16,124.083 2240.73,128.475 2230.8,133.842L2239.74,166.783C2230.88,172.221 2222.64,178.618 2215.18,185.858L2185.48,169.033C2177.82,177.33 2170.98,186.349 2165.06,195.965L2189.28,220.019C2184.33,229.159 2180.39,238.818 2177.55,248.819L2143.42,249.098C2140.93,260.113 2139.52,271.343 2139.2,282.631L2172.2,291.352C2172.48,301.746 2173.9,312.078 2176.44,322.162L2147.02,339.47C2150.37,350.252 2154.76,360.684 2160.13,370.618L2193.07,361.671C2198.51,370.533 2204.91,378.77 2212.15,386.233L2195.32,415.933C2203.62,423.593 2212.64,430.431 2222.26,436.351L2246.31,412.132C2255.45,417.088 2265.11,421.023 2275.11,423.866L2275.39,457.999C2286.4,460.485 2297.63,461.898 2308.92,462.216L2317.64,429.215C2328.04,428.937 2338.37,427.516 2348.45,424.977L2365.76,454.397C2376.54,451.043 2386.97,446.651 2396.91,441.283L2387.96,408.342C2396.82,402.905 2405.06,396.508 2412.52,389.268L2442.22,406.092C2449.88,397.796 2456.72,388.777 2462.64,379.161L2438.42,355.107C2443.38,345.966 2447.31,336.308 2450.16,326.306L2484.29,326.027C2486.78,315.012 2488.19,303.782 2488.51,292.495L2455.51,283.773C2455.23,273.379 2453.81,263.047 2451.27,252.964L2480.69,235.656C2477.33,224.874 2472.94,214.442 2467.57,204.507L2434.63,213.455C2429.19,204.592 2422.8,196.355 2415.56,188.892L2432.38,159.193C2424.09,151.532 2415.07,144.694 2405.45,138.775L2381.4,162.994C2372.26,158.037 2362.6,154.102 2352.6,151.259L2352.32,117.126ZM1714.86,372.293L1601.52,372.293L1601.52,453.945L1714.86,453.945L1714.86,372.293ZM1635.96,413.818L1620.7,429.079L1628.82,437.199L1644.08,421.938L1644.11,421.966L1652.23,413.846L1628.86,390.474L1620.74,398.594L1635.96,413.818ZM1690.68,423.327L1657.63,423.327L1657.63,434.81L1690.68,434.81L1690.68,423.327ZM931.372,139.681C1000.64,147.989 1050.14,210.974 1041.83,280.247C1033.52,349.52 970.539,399.015 901.266,390.707C831.993,382.399 782.498,319.413 790.806,250.141C799.114,180.868 862.1,131.373 931.372,139.681ZM2325.78,192.713C2378.13,199.296 2415.29,247.141 2408.7,299.491C2402.12,351.84 2354.27,388.996 2301.93,382.413C2249.58,375.83 2212.42,327.984 2219,275.635C2225.59,223.286 2273.43,186.13 2325.78,192.713ZM895.926,348.776C903.447,345.027 910.188,342.007 916.543,337.55C923.83,344.48 930.493,346.178 937.408,348.508C937.704,353.907 936.147,356.854 930.614,358.051C925.552,356.423 919.94,354.397 915.562,350.051C912.419,353.337 908.237,355.907 903.583,358.153C896.269,356.357 894.548,353.037 895.926,348.776ZM2314.49,222.364C2351.47,222.364 2381.49,252.383 2381.49,289.359C2381.49,326.334 2351.47,356.353 2314.49,356.353C2277.52,356.353 2247.5,326.334 2247.5,289.359C2247.5,252.383 2277.52,222.364 2314.49,222.364ZM877.149,334.952C890.571,330.476 904.103,325.919 916.566,317.925C928.963,325.769 942.094,332.242 956.178,336.94C957.228,340.349 955.006,345.065 950.01,347.06C937.44,342.264 926.295,336.539 916.463,329.96C908.303,335.423 898.318,339.562 885.208,345.533C879.311,344.012 876.379,340.19 877.149,334.952ZM2314.49,235.358C2344.3,235.358 2368.49,259.555 2368.49,289.359C2368.49,319.162 2344.3,343.359 2314.49,343.359C2284.69,343.359 2260.49,319.162 2260.49,289.359C2260.49,259.555 2284.69,235.358 2314.49,235.358ZM2313.6,241.903C2313.68,241.509 2314.03,241.229 2314.44,241.229C2314.84,241.229 2315.19,241.509 2315.28,241.903L2322.45,274.113C2322.83,275.815 2323.68,277.373 2324.92,278.606C2326.15,279.839 2327.71,280.695 2329.41,281.074L2361.62,288.244C2362.01,288.332 2362.29,288.681 2362.29,289.085C2362.29,289.488 2362.01,289.837 2361.62,289.925L2329.41,297.095C2327.71,297.474 2326.15,298.33 2324.92,299.563C2323.68,300.796 2322.83,302.354 2322.45,304.056L2315.28,336.266C2315.19,336.66 2314.84,336.94 2314.44,336.94C2314.03,336.94 2313.68,336.66 2313.6,336.266L2306.43,304.056C2306.05,302.354 2305.19,300.796 2303.96,299.563C2302.73,298.33 2301.17,297.474 2299.47,297.095L2267.26,289.925C2266.86,289.837 2266.58,289.488 2266.58,289.085C2266.58,288.681 2266.86,288.332 2267.26,288.244L2299.47,281.074C2301.17,280.695 2302.73,279.839 2303.96,278.606C2305.19,277.373 2306.05,275.815 2306.43,274.113L2313.6,241.903ZM864.677,317.563C884.675,310.551 902.135,303.874 917.438,294.416C933.16,306.668 949.282,314.619 967.897,321.97C968.266,326.222 967.173,331.192 962.249,332.055C946.745,325.125 931.642,317.227 917.144,307.869C909.228,312.384 894.407,320.157 871.986,328.03C865.789,326.865 864.09,322.009 864.677,317.563ZM2343.15,318.253L2332.78,302.78L2327.67,307.891L2343.15,318.253ZM2285.84,318.253L2296.2,302.78L2301.31,307.891L2285.84,318.253ZM936.318,278.684C936.318,278.684 941.96,294.634 974.462,305.563C977.834,306.697 975.778,309.786 974.127,312.221C972.5,314.619 971.525,315.677 969.397,315.359C950.396,312.521 923.231,286.044 927.449,284.035C927.449,284.035 926.564,282.341 929.76,279.384C933.226,276.179 936.318,278.684 936.318,278.684ZM866.272,256.218C880.083,256.218 891.296,267.431 891.296,281.242C891.296,295.053 880.083,306.266 866.272,306.266C852.461,306.266 841.248,295.053 841.248,281.242C841.248,267.431 852.461,256.218 866.272,256.218ZM2314.49,281.281C2318.95,281.281 2322.57,284.901 2322.57,289.359C2322.57,293.817 2318.95,297.436 2314.49,297.436C2310.03,297.436 2306.41,293.817 2306.41,289.359C2306.41,284.901 2310.03,281.281 2314.49,281.281ZM866.272,268.73C873.177,268.73 878.784,274.336 878.784,281.242C878.784,288.148 873.177,293.754 866.272,293.754C859.366,293.754 853.76,288.148 853.76,281.242C853.76,274.336 859.366,268.73 866.272,268.73ZM974.288,243.603C988.099,243.603 999.312,254.816 999.312,268.627C999.312,282.438 988.099,293.651 974.288,293.651C960.477,293.651 949.264,282.438 949.264,268.627C949.264,254.816 960.477,243.603 974.288,243.603ZM929.133,237.367C929.133,237.367 934.171,253.01 905.225,276.584C895.373,284.607 903.653,291.265 903.653,291.265C912.815,287.383 945.356,258.388 939.744,233.939C937.795,225.445 929.133,237.367 929.133,237.367ZM974.288,256.115C981.194,256.115 986.8,261.721 986.8,268.627C986.8,275.532 981.194,281.139 974.288,281.139C967.383,281.139 961.776,275.532 961.776,268.627C961.776,261.721 967.383,256.115 974.288,256.115ZM2285.84,260.465L2296.2,275.938L2301.31,270.826L2285.84,260.465ZM2343.15,260.465L2332.78,275.938L2327.67,270.826L2343.15,260.465ZM909.189,238.307C909.189,238.307 910.632,242.84 894.537,258.412C888.172,264.571 894.068,264.098 896.266,265.042C899.625,266.485 902.364,267.075 902.364,267.075C902.364,267.075 918.07,252.536 920.823,238.308C921.754,233.497 909.189,238.307 909.189,238.307ZM890.854,226.5C890.854,226.5 885.701,241.084 876.523,246.655C867.346,252.227 885.521,253.477 885.521,253.477L899.593,233.99L890.854,226.5ZM878.284,212.02C878.284,212.02 869.467,229.984 856.792,235.821C844.117,241.657 854.346,247.862 857.604,245.825C857.604,245.825 877.646,245.154 884.754,215.675C889.383,196.483 877.462,211.875 878.284,212.02ZM945.68,223.153C945.68,223.153 953.12,226.112 949.348,243.535C948.526,247.333 971.82,237.68 953.402,213.043C948.071,205.912 945.68,223.153 945.68,223.153ZM948.136,183.233C948.136,183.233 977.036,195.053 982.438,234.728C982.817,237.512 967.694,235.8 967.694,235.8C967.694,235.8 970.685,217.889 956.188,203.689C942.385,190.17 947.358,181.874 948.136,183.233ZM916.895,178.476C930.706,178.476 941.919,189.689 941.919,203.5C941.919,217.311 930.706,228.524 916.895,228.524C903.084,228.524 891.871,217.311 891.871,203.5C891.871,189.689 903.084,178.476 916.895,178.476ZM890.948,181.687C890.948,181.687 859.665,185.809 856.505,211.562C855.179,222.371 864.207,216.887 871.052,208.717C880.515,197.422 890.948,181.687 890.948,181.687ZM916.895,190.988C923.801,190.988 929.407,196.594 929.407,203.5C929.407,210.405 923.801,216.012 916.895,216.012C909.99,216.012 904.383,210.405 904.383,203.5C904.383,196.594 909.99,190.988 916.895,190.988Z" style="fill:url(#_Linear1);"/>
    <defs>
        <linearGradient id="_Linear1" x1="0" y1="0" x2="1" y2="0" gradientUnits="userSpaceOnUse" gradientTransform="matrix(1.06646e-13,1741.67,-1741.67,1.06646e-13,1348.48,-218.988)"><stop offset="0" style="stop-color:white;stop-opacity:1"/><stop offset="1" style="stop-color:white;stop-opacity:0"/></linearGradient>
    </defs>
</svg>
