<?xml version="1.0" encoding="UTF-8" standalone="no"?>
<!DOCTYPE svg PUBLIC "-//W3C//DTD SVG 1.1//EN" "http://www.w3.org/Graphics/SVG/1.1/DTD/svg11.dtd">
<svg width="100%" height="100%" viewBox="0 0 2560 1440" version="1.1" xmlns="http://www.w3.org/2000/svg" xmlns:xlink="http://www.w3.org/1999/xlink" xml:space="preserve" xmlns:serif="http://www.serif.com/" style="fill-rule:evenodd;clip-rule:evenodd;stroke-linejoin:round;stroke-miterlimit:2;">
    <g transform="matrix(1.6177,0,0,1.6177,-45.3454,0.432246)">
        <path d="M1220.94,443.334C1212.5,441.411 1203.89,440.311 1195.24,440.05L1188.51,465.531C1180.55,465.728 1172.64,466.8 1164.92,468.728L1151.64,445.958C1143.37,448.514 1135.37,451.866 1127.74,455.966L1134.65,481.401C1127.86,485.549 1121.54,490.433 1115.82,495.964L1092.94,482.881C1087.05,489.23 1081.8,496.136 1077.24,503.5L1095.94,522.072C1092.14,529.061 1089.11,536.448 1086.92,544.099L1060.56,544.208C1058.64,552.651 1057.54,561.259 1057.28,569.914L1082.76,576.647C1082.96,584.603 1084.03,592.514 1085.96,600.236L1063.19,613.508C1065.74,621.781 1069.09,629.786 1073.19,637.412L1098.63,630.503C1102.78,637.294 1107.66,643.609 1113.19,649.332L1100.11,672.212C1106.46,678.098 1113.36,683.355 1120.73,687.909L1139.3,669.208C1146.29,673.016 1153.67,676.043 1161.33,678.234L1161.44,704.59C1169.88,706.513 1178.49,707.612 1187.14,707.874L1193.87,682.393C1201.83,682.196 1209.74,681.124 1217.46,679.196L1230.74,701.966C1239.01,699.41 1247.01,696.058 1254.64,691.957L1247.73,666.523C1254.52,662.374 1260.84,657.491 1266.56,651.96L1289.44,665.043C1295.33,658.693 1300.58,651.788 1305.14,644.424L1286.44,625.852C1290.24,618.863 1293.27,611.476 1295.46,603.825L1321.82,603.715C1323.74,595.273 1324.84,586.665 1325.1,578.01L1299.62,571.277C1299.42,563.321 1298.35,555.41 1296.42,547.688L1319.19,534.415C1316.64,526.143 1313.29,518.138 1309.18,510.512L1283.75,517.421C1279.6,510.629 1274.72,504.315 1269.19,498.591L1282.27,475.712C1275.92,469.825 1269.02,464.569 1261.65,460.015L1243.08,478.716C1236.09,474.908 1228.7,471.881 1221.05,469.69L1220.94,443.334ZM298.461,556.867C294.613,555.751 290.667,555.01 286.676,554.656L282.907,565.384C279.163,565.258 275.417,565.545 271.736,566.238L266.379,556.208C262.489,557.165 258.701,558.497 255.068,560.185L257.168,571.361C253.863,573.123 250.762,575.245 247.921,577.686L238.266,571.677C235.376,574.451 232.761,577.499 230.459,580.778L237.865,589.406C235.884,592.585 234.259,595.973 233.02,599.507L221.655,599.131C220.538,602.978 219.798,606.925 219.443,610.916L230.172,614.685C230.046,618.429 230.332,622.175 231.026,625.856L220.995,631.212C221.952,635.103 223.284,638.891 224.972,642.524L236.148,640.424C237.911,643.729 240.032,646.83 242.473,649.671L236.465,659.325C239.239,662.216 242.287,664.831 245.565,667.133L254.194,659.726C257.373,661.707 260.76,663.332 264.295,664.572L263.918,675.937C267.766,677.053 271.713,677.794 275.703,678.149L279.473,667.42C283.216,667.546 286.962,667.26 290.643,666.566L296,676.597C299.89,675.639 303.678,674.307 307.312,672.619L305.212,661.443C308.517,659.681 311.618,657.56 314.459,655.119L324.113,661.127C327.003,658.353 329.618,655.305 331.92,652.027L324.514,643.398C326.495,640.219 328.12,636.832 329.36,633.297L340.725,633.673C341.841,629.826 342.582,625.879 342.936,621.888L332.208,618.119C332.334,614.376 332.047,610.629 331.354,606.949L341.384,601.592C340.427,597.702 339.095,593.913 337.407,590.28L326.231,592.38C324.468,589.075 322.347,585.974 319.906,583.133L325.915,573.479C323.141,570.588 320.093,567.974 316.814,565.671L308.186,573.078C305.007,571.097 301.619,569.472 298.085,568.232L298.461,556.867ZM410.031,554.238C406.49,553.645 402.905,553.361 399.315,553.388L396.098,564.68C392.378,564.951 388.7,565.631 385.128,566.707L378.09,557.309C374.727,558.566 371.48,560.112 368.385,561.931L371.245,573.318C368.159,575.413 365.313,577.841 362.758,580.558L351.964,575.939C349.68,578.708 347.641,581.671 345.87,584.794L354.04,593.226C352.415,596.583 351.164,600.108 350.31,603.739L338.652,605.136C338.059,608.676 337.775,612.262 337.803,615.851L349.094,619.068C349.365,622.788 350.045,626.467 351.121,630.038L341.723,637.077C342.98,640.439 344.526,643.687 346.345,646.782L357.732,643.922C359.827,647.008 362.255,649.854 364.972,652.409L360.353,663.203C363.123,665.487 366.085,667.526 369.208,669.297L377.64,661.126C380.997,662.752 384.523,664.003 388.153,664.856L389.55,676.514C393.09,677.107 396.676,677.392 400.266,677.364L403.482,666.072C407.202,665.801 410.881,665.122 414.452,664.046L421.491,673.444C424.854,672.187 428.101,670.64 431.196,668.822L428.336,657.434C431.422,655.34 434.268,652.912 436.823,650.194L447.617,654.814C449.901,652.044 451.94,649.081 453.711,645.959L445.54,637.527C447.166,634.17 448.417,630.644 449.271,627.013L460.928,625.617C461.521,622.076 461.806,618.491 461.778,614.901L450.486,611.684C450.215,607.964 449.536,604.286 448.46,600.714L457.858,593.676C456.601,590.313 455.055,587.066 453.236,583.971L441.848,586.831C439.754,583.745 437.326,580.899 434.609,578.344L439.228,567.549C436.458,565.266 433.495,563.227 430.373,561.456L421.941,569.626C418.584,568.001 415.058,566.75 411.428,565.896L410.031,554.238ZM1423.15,467.743C1417.02,467.089 1410.84,467.031 1404.69,467.569L1402.06,486.144C1396.45,486.949 1390.94,488.369 1385.64,490.379L1374.35,475.395C1368.71,477.895 1363.33,480.936 1358.28,484.474L1365.29,501.876C1360.83,505.38 1356.77,509.363 1353.18,513.755L1335.91,506.423C1332.28,511.406 1329.14,516.731 1326.54,522.32L1341.31,533.888C1339.2,539.151 1337.67,544.63 1336.76,550.227L1318.14,552.511C1317.49,558.643 1317.43,564.825 1317.97,570.968L1336.54,573.601C1337.35,579.214 1338.77,584.721 1340.78,590.022L1325.8,601.311C1328.3,606.948 1331.34,612.331 1334.87,617.382L1352.28,610.375C1355.78,614.833 1359.76,618.892 1364.15,622.478L1356.82,639.746C1361.81,643.379 1367.13,646.52 1372.72,649.125L1384.29,634.356C1389.55,636.465 1395.03,637.988 1400.63,638.898L1402.91,657.519C1409.04,658.173 1415.23,658.231 1421.37,657.692L1424,639.118C1429.61,638.313 1435.12,636.892 1440.42,634.883L1451.71,649.866C1457.35,647.366 1462.73,644.326 1467.78,640.787L1460.78,623.385C1465.23,619.882 1469.29,615.898 1472.88,611.507L1490.15,618.839C1493.78,613.855 1496.92,608.531 1499.53,602.941L1484.76,591.373C1486.87,586.11 1488.39,580.631 1489.3,575.035L1507.92,572.751C1508.57,566.618 1508.63,560.437 1508.09,554.293L1489.52,551.66C1488.71,546.048 1487.29,540.541 1485.28,535.239L1500.27,523.951C1497.77,518.313 1494.73,512.931 1491.19,507.88L1473.79,514.886C1470.28,510.428 1466.3,506.369 1461.91,502.783L1469.24,485.515C1464.26,481.883 1458.93,478.742 1453.34,476.137L1441.77,490.906C1436.51,488.797 1431.03,487.273 1425.43,486.363L1423.15,467.743ZM287.445,583.067C305.843,586.519 317.977,604.259 314.525,622.657C311.072,641.055 293.333,653.189 274.935,649.737C256.537,646.285 244.402,628.545 247.855,610.147C251.307,591.749 269.047,579.615 287.445,583.067ZM402.472,581.566C421.133,583.046 435.081,599.397 433.601,618.058C432.121,636.718 415.769,650.667 397.109,649.187C378.448,647.707 364.5,631.355 365.98,612.695C367.46,594.034 383.811,580.086 402.472,581.566ZM1200.48,501.252C1240.61,506.379 1269.03,543.123 1263.9,583.253C1258.77,623.383 1222.03,651.8 1181.9,646.672C1141.77,641.545 1113.35,604.801 1118.48,564.671C1123.61,524.541 1160.35,496.124 1200.48,501.252ZM988.847,407.072C981.849,405.478 974.712,404.566 967.538,404.349L961.947,425.073C955.322,425.237 948.735,426.13 942.306,427.735L931.4,409.247C924.542,411.366 917.906,414.144 911.584,417.544L917.104,438.286C911.449,441.741 906.191,445.807 901.425,450.412L882.737,439.855C877.857,445.118 873.499,450.842 869.724,456.947L884.876,472.151C881.705,477.97 879.185,484.121 877.361,490.492L855.897,490.693C854.303,497.691 853.391,504.827 853.174,512.001L873.898,517.593C874.062,524.218 874.955,530.804 876.56,537.234L858.072,548.14C860.191,554.997 862.969,561.634 866.369,567.955L887.111,562.436C890.566,568.091 894.632,573.349 899.237,578.114L888.68,596.803C893.943,601.682 899.667,606.04 905.772,609.815L920.976,594.664C926.795,597.834 932.946,600.354 939.317,602.179L939.518,623.643C946.516,625.237 953.652,626.148 960.826,626.365L966.418,605.642C973.043,605.478 979.629,604.585 986.059,602.98L996.965,621.467C1003.82,619.349 1010.46,616.57 1016.78,613.171L1011.26,592.428C1016.92,588.974 1022.17,584.907 1026.94,580.302L1045.63,590.86C1050.51,585.596 1054.87,579.872 1058.64,573.768L1043.49,558.563C1046.66,552.744 1049.18,546.594 1051,540.223L1072.47,540.022C1074.06,533.024 1074.97,525.887 1075.19,518.713L1054.47,513.122C1054.3,506.497 1053.41,499.91 1051.81,493.481L1070.29,482.575C1068.17,475.717 1065.39,469.081 1062,462.76L1041.25,468.279C1037.8,462.624 1033.73,457.366 1029.13,452.6L1039.68,433.912C1034.42,429.032 1028.7,424.674 1022.59,420.899L1007.39,436.051C1001.57,432.881 995.418,430.36 989.048,428.536L988.847,407.072ZM1413.52,510.422C1442.34,510.692 1465.51,534.306 1465.24,563.121C1464.97,591.935 1441.36,615.11 1412.54,614.839C1383.73,614.569 1360.55,590.956 1360.82,562.141C1361.09,533.326 1384.71,510.152 1413.52,510.422ZM758.129,328.783C749.5,327.267 740.743,326.591 731.983,326.764L726.507,353.4C718.515,353.998 710.614,355.475 702.945,357.802L688.221,334.941C679.989,337.942 672.068,341.735 664.568,346.265L673.143,372.07C666.522,376.585 660.417,381.814 654.939,387.664L630.757,375.228C625.129,381.943 620.165,389.188 615.935,396.861L636.264,414.921C632.787,422.142 630.115,429.723 628.296,437.528L601.135,438.849C599.619,447.479 598.943,456.235 599.116,464.995L625.752,470.471C626.35,478.463 627.827,486.364 630.154,494.033L607.293,508.757C610.294,516.989 614.087,524.911 618.617,532.411L644.422,523.835C648.937,530.457 654.166,536.561 660.016,542.039L647.58,566.221C654.295,571.849 661.54,576.813 669.213,581.043L687.273,560.714C694.494,564.191 702.075,566.864 709.88,568.682L711.201,595.843C719.831,597.359 728.587,598.036 737.347,597.862L742.823,571.227C750.815,570.628 758.717,569.151 766.385,566.824L781.109,589.685C789.341,586.684 797.263,582.891 804.763,578.361L796.187,552.556C802.809,548.042 808.913,542.812 814.391,536.962L838.573,549.399C844.201,542.683 849.165,535.438 853.395,527.765L833.066,509.705C836.543,502.484 839.216,494.903 841.034,487.098L868.195,485.777C869.711,477.148 870.388,468.391 870.214,459.631L843.579,454.155C842.98,446.163 841.504,438.262 839.176,430.593L862.037,415.869C859.036,407.637 855.243,399.716 850.713,392.216L824.908,400.791C820.394,394.17 815.164,388.065 809.314,382.587L821.751,358.405C815.035,352.777 807.79,347.813 800.117,343.583L782.057,363.912C774.836,360.435 767.255,357.763 759.45,355.944L758.129,328.783ZM208.197,431.02C203.02,429.539 197.712,428.563 192.347,428.105L187.304,443.504C182.343,443.355 177.38,443.753 172.505,444.69L165.075,430.29C159.851,431.596 154.766,433.405 149.891,435.691L153.224,451.548C148.852,453.9 144.753,456.726 141,459.975L127.366,451.219C123.494,454.962 119.995,459.071 116.917,463.489L127.731,475.555C125.121,479.777 122.984,484.274 121.358,488.964L105.173,488.199C103.692,493.376 102.716,498.684 102.258,504.049L117.657,509.092C117.508,514.053 117.906,519.016 118.843,523.891L104.443,531.321C105.749,536.545 107.558,541.63 109.844,546.505L125.701,543.172C128.053,547.544 130.879,551.643 134.128,555.396L125.372,569.03C129.115,572.901 133.224,576.401 137.642,579.479L149.708,568.665C153.93,571.275 158.427,573.412 163.117,575.037L162.352,591.223C167.529,592.704 172.837,593.68 178.202,594.137L183.245,578.739C188.206,578.888 193.169,578.49 198.044,577.553L205.474,591.952C210.698,590.647 215.783,588.838 220.658,586.552L217.325,570.694C221.697,568.343 225.796,565.517 229.549,562.268L243.183,571.024C247.054,567.281 250.554,563.172 253.632,558.754L242.818,546.688C245.428,542.465 247.565,537.969 249.19,533.279L265.376,534.044C266.857,528.867 267.833,523.559 268.29,518.194L252.892,513.151C253.041,508.19 252.643,503.227 251.706,498.352L266.105,490.922C264.8,485.698 262.991,480.613 260.705,475.738L244.847,479.071C242.496,474.699 239.67,470.6 236.421,466.847L245.177,453.213C241.434,449.341 237.325,445.842 232.907,442.764L220.841,453.578C216.618,450.968 212.122,448.831 207.432,447.205L208.197,431.02ZM971.884,455.083C1005.15,459.334 1028.71,489.793 1024.46,523.059C1020.21,556.325 989.747,579.882 956.481,575.631C923.215,571.381 899.658,540.922 903.908,507.656C908.159,474.39 938.618,450.833 971.884,455.083ZM528.531,358.282C521.867,356.411 515.036,355.19 508.136,354.637L501.746,374.708C495.384,374.548 489.024,375.09 482.781,376.322L473.09,357.62C466.383,359.332 459.857,361.69 453.605,364.661L458.106,385.238C452.517,388.281 447.28,391.929 442.489,396.118L424.746,384.767C419.793,389.604 415.32,394.908 411.391,400.608L425.578,416.177C422.259,421.607 419.548,427.385 417.494,433.408L396.452,432.45C394.581,439.115 393.36,445.945 392.806,452.845L412.877,459.235C412.718,465.597 413.259,471.957 414.492,478.2L395.79,487.891C397.501,494.598 399.859,501.124 402.83,507.377L423.407,502.875C426.45,508.464 430.099,513.701 434.288,518.492L422.937,536.235C427.773,541.188 433.078,545.661 438.777,549.59L454.346,535.403C459.776,538.722 465.555,541.433 471.578,543.488L470.619,564.529C477.284,566.401 484.114,567.622 491.015,568.175L497.405,548.104C503.766,548.263 510.126,547.722 516.37,546.49L526.06,565.192C532.768,563.48 539.294,561.122 545.546,558.151L541.045,537.574C546.634,534.531 551.871,530.882 556.662,526.694L574.405,538.044C579.358,533.208 583.83,527.903 587.76,522.204L573.573,506.635C576.892,501.205 579.603,495.427 581.657,489.404L602.699,490.362C604.57,483.697 605.791,476.867 606.344,469.967L586.274,463.577C586.433,457.215 585.892,450.855 584.659,444.612L603.361,434.921C601.649,428.213 599.291,421.688 596.32,415.435L575.744,419.937C572.701,414.348 569.052,409.11 564.863,404.32L576.214,386.576C571.378,381.623 566.073,377.151 560.374,373.222L544.804,387.408C539.375,384.09 533.596,381.378 527.573,379.324L528.531,358.282ZM193.519,466.288C218.263,470.838 234.658,494.621 230.108,519.366C225.558,544.11 201.775,560.505 177.03,555.955C152.286,551.405 135.891,527.622 140.441,502.877C144.991,478.133 168.774,461.738 193.519,466.288ZM740.377,388.355C781.196,391.508 811.776,427.207 808.623,468.025C805.471,508.844 769.772,539.424 728.953,536.271C688.135,533.119 657.555,497.42 660.707,456.601C663.86,415.783 699.559,385.203 740.377,388.355ZM509.887,403.716C541.727,409.407 562.957,439.878 557.266,471.718C551.574,503.558 521.104,524.787 489.264,519.096C457.424,513.405 436.194,482.934 441.885,451.094C447.576,419.254 478.047,398.024 509.887,403.716ZM706.754,510.889L706.754,502.137L711.325,502.137L711.325,510.889L714.919,510.889L714.919,502.137L719.49,502.137L719.49,510.889L723.305,510.889L723.305,502.137L727.876,502.137L727.876,510.889L775.079,510.889L775.079,414.091L695.095,414.091L695.095,510.889L706.754,510.889ZM744.605,475.585C744.525,475.36 744.481,475.118 744.481,474.866C744.481,473.683 745.442,472.722 746.625,472.722C747.321,472.722 747.94,473.055 748.332,473.57L761.801,489.159C762.727,490.191 763.29,491.555 763.29,493.05C763.29,496.269 760.677,498.882 757.458,498.882C754.915,498.882 752.749,497.251 751.952,494.978L744.605,475.585ZM744.127,485.701C741.212,486.565 738.127,487.028 734.935,487.028C717.081,487.028 702.587,472.533 702.587,454.679C702.587,436.826 717.081,422.331 734.935,422.331C752.789,422.331 767.284,436.826 767.284,454.679C767.284,463.697 763.586,471.858 757.626,477.726L751.867,471.061C750.708,469.537 748.876,468.553 746.816,468.553C743.315,468.553 740.473,471.395 740.473,474.896C740.473,475.642 740.602,476.359 740.839,477.024L744.127,485.701ZM1364.96,280.893C1358.97,279.465 1352.84,278.621 1346.68,278.375L1341.7,295.794C1335.98,295.88 1330.29,296.595 1324.73,297.926L1315.59,282.281C1309.68,284.044 1303.95,286.375 1298.49,289.243L1302.89,306.82C1297.98,309.753 1293.41,313.218 1289.26,317.152L1273.52,308.171C1269.29,312.653 1265.49,317.535 1262.2,322.748L1274.79,335.773C1272.01,340.768 1269.78,346.054 1268.15,351.537L1250.04,351.626C1248.61,357.626 1247.76,363.75 1247.52,369.912L1264.94,374.895C1265.02,380.613 1265.74,386.305 1267.07,391.867L1251.42,401.003C1253.19,406.913 1255.52,412.638 1258.38,418.098L1275.96,413.704C1278.89,418.613 1282.36,423.184 1286.29,427.336L1277.31,443.071C1281.8,447.307 1286.68,451.099 1291.89,454.394L1304.91,441.8C1309.91,444.585 1315.2,446.811 1320.68,448.44L1320.77,466.557C1326.77,467.985 1332.89,468.828 1339.05,469.075L1344.04,451.656C1349.76,451.57 1355.45,450.855 1361.01,449.524L1370.14,465.169C1376.06,463.406 1381.78,461.075 1387.24,458.207L1382.85,440.63C1387.76,437.697 1392.33,434.232 1396.48,430.298L1412.21,439.279C1416.45,434.797 1420.24,429.915 1423.54,424.702L1410.94,411.677C1413.73,406.682 1415.95,401.395 1417.58,395.913L1435.7,395.823C1437.13,389.824 1437.97,383.7 1438.22,377.538L1420.8,372.555C1420.71,366.837 1420,361.145 1418.67,355.583L1434.31,346.447C1432.55,340.537 1430.22,334.812 1427.35,329.352L1409.77,333.746C1406.84,328.837 1403.37,324.265 1399.44,320.114L1408.42,304.379C1403.94,300.143 1399.06,296.35 1393.84,293.056L1380.82,305.65C1375.82,302.865 1370.54,300.638 1365.06,299.01L1364.96,280.893ZM340.551,203.707C332.216,201.363 323.673,199.833 315.042,199.138L307.036,224.429C299.093,224.228 291.152,224.901 283.356,226.437L271.206,202.854C262.816,204.992 254.653,207.938 246.831,211.651L252.543,237.557C245.563,241.354 239.022,245.908 233.039,251.136L210.726,236.787C204.528,242.834 198.932,249.467 194.015,256.594L211.914,276.173C207.768,282.951 204.38,290.165 201.813,297.684L175.315,296.415C172.971,304.75 171.441,313.292 170.746,321.923L196.037,329.93C195.835,337.873 196.508,345.814 198.044,353.61L174.461,365.759C176.599,374.149 179.546,382.313 183.259,390.134L209.165,384.423C212.962,391.402 217.515,397.943 222.743,403.927L208.395,426.24C214.441,432.437 221.075,438.033 228.201,442.951L247.781,425.051C254.559,429.197 261.773,432.585 269.292,435.153L268.022,461.651C276.357,463.994 284.9,465.525 293.531,466.22L301.537,440.928C309.48,441.13 317.421,440.457 325.217,438.921L337.367,462.504C345.757,460.366 353.92,457.42 361.742,453.707L356.03,427.8C363.01,424.004 369.551,419.45 375.534,414.222L397.847,428.571C404.045,422.524 409.641,415.891 414.558,408.764L396.659,389.185C400.805,382.407 404.193,375.193 406.76,367.673L433.258,368.943C435.602,360.608 437.132,352.065 437.827,343.435L412.536,335.428C412.738,327.485 412.065,319.544 410.529,311.748L434.112,299.599C431.974,291.208 429.028,283.045 425.314,275.223L399.408,280.935C395.611,273.955 391.058,267.415 385.83,261.431L400.178,239.118C394.132,232.921 387.498,227.324 380.372,222.407L360.792,240.307C354.014,236.16 346.8,232.773 339.281,230.205L340.551,203.707ZM734.935,446.248C739.589,446.248 743.367,450.026 743.367,454.679C743.367,459.333 739.589,463.111 734.935,463.111C730.281,463.111 726.503,459.333 726.503,454.679C726.503,450.026 730.281,446.248 734.935,446.248ZM735.015,450.682C737.249,450.682 739.063,452.496 739.063,454.73C739.063,456.964 737.249,458.779 735.015,458.779C732.78,458.779 730.966,456.964 730.966,454.73C730.966,452.496 732.78,450.682 735.015,450.682ZM719.172,444.79C722.438,439.401 728.359,435.796 735.115,435.796L735.22,435.797L735.22,440.454C735.184,440.454 735.15,440.454 735.115,440.454C730.247,440.454 725.957,442.949 723.456,446.728L719.172,444.79ZM711.734,441.424C716.306,433.225 725.067,427.674 735.115,427.674L735.22,427.674L735.22,432.771L735.115,432.771C727.132,432.771 720.153,437.099 716.398,443.534L711.734,441.424ZM1139.44,284.796C1134.45,283.67 1129.36,283.03 1124.25,282.885L1120.28,297.037C1115.51,297.164 1110.77,297.816 1106.14,298.981L1098.49,286.428C1093.61,287.949 1088.88,289.939 1084.38,292.371L1088.01,306.613C1083.95,309.108 1080.17,312.043 1076.74,315.364L1063.85,308.317C1060.37,312.076 1057.28,316.163 1054.59,320.521L1064.86,331.037C1062.59,335.231 1060.78,339.662 1059.48,344.251L1044.78,344.597C1043.66,349.588 1043.02,354.677 1042.87,359.792L1057.02,363.765C1057.15,368.534 1057.8,373.274 1058.97,377.9L1046.42,385.547C1047.94,390.433 1049.93,395.16 1052.36,399.661L1066.6,396.027C1069.1,400.093 1072.03,403.872 1075.35,407.296L1068.31,420.195C1072.06,423.666 1076.15,426.765 1080.51,429.447L1091.03,419.179C1095.22,421.453 1099.65,423.258 1104.24,424.562L1104.59,439.257C1109.58,440.383 1114.66,441.023 1119.78,441.167L1123.75,427.016C1128.52,426.889 1133.26,426.237 1137.89,425.072L1145.54,437.625C1150.42,436.104 1155.15,434.114 1159.65,431.682L1156.02,417.44C1160.08,414.945 1163.86,412.01 1167.28,408.689L1180.18,415.736C1183.65,411.977 1186.75,407.89 1189.43,403.532L1179.17,393.016C1181.44,388.822 1183.25,384.391 1184.55,379.802L1199.24,379.456C1200.37,374.465 1201.01,369.376 1201.15,364.261L1187,360.288C1186.88,355.519 1186.22,350.779 1185.06,346.153L1197.61,338.506C1196.09,333.62 1194.1,328.893 1191.67,324.391L1177.43,328.026C1174.93,323.96 1172,320.18 1168.68,316.757L1175.72,303.858C1171.96,300.387 1167.88,297.288 1163.52,294.606L1153,304.874C1148.81,302.6 1144.38,300.795 1139.79,299.491L1139.44,284.796ZM1349.99,322.002C1378.54,325.933 1398.52,352.3 1394.59,380.847C1390.66,409.394 1364.29,429.379 1335.75,425.448C1307.2,421.517 1287.21,395.15 1291.14,366.603C1295.08,338.056 1321.44,318.071 1349.99,322.002ZM984.154,233.001C978.529,231.766 972.797,231.078 967.039,230.949L962.677,247.483C957.353,247.656 952.064,248.415 946.906,249.745L938.072,235.103C932.583,236.845 927.276,239.116 922.224,241.883L926.714,258.383C922.189,261.195 917.988,264.496 914.186,268.228L899.215,259.964C895.333,264.217 891.871,268.837 888.88,273.759L901.019,285.804C898.506,290.502 896.519,295.461 895.092,300.593L877.995,300.922C876.759,306.547 876.071,312.279 875.942,318.037L892.477,322.399C892.65,327.723 893.408,333.012 894.738,338.17L880.096,347.004C881.838,352.493 884.109,357.801 886.876,362.852L903.376,358.362C906.188,362.887 909.489,367.088 913.221,370.89L904.957,385.861C909.21,389.744 913.831,393.205 918.752,396.196L930.797,384.058C935.495,386.57 940.454,388.557 945.587,389.984L945.915,407.082C951.54,408.317 957.272,409.005 963.03,409.134L967.392,392.6C972.716,392.427 978.005,391.668 983.164,390.338L991.997,404.98C997.486,403.238 1002.79,400.967 1007.85,398.2L1003.36,381.7C1007.88,378.888 1012.08,375.587 1015.88,371.856L1030.85,380.12C1034.74,375.866 1038.2,371.246 1041.19,366.324L1029.05,354.279C1031.56,349.582 1033.55,344.622 1034.98,339.49L1052.08,339.161C1053.31,333.536 1054,327.804 1054.13,322.046L1037.59,317.684C1037.42,312.36 1036.66,307.071 1035.33,301.913L1049.97,293.079C1048.23,287.59 1045.96,282.283 1043.19,277.231L1026.69,281.721C1023.88,277.196 1020.58,272.995 1016.85,269.193L1025.11,254.222C1020.86,250.34 1016.24,246.878 1011.32,243.887L999.272,256.026C994.575,253.513 989.615,251.526 984.483,250.099L984.154,233.001ZM317.21,260.526C357.033,267.658 383.573,305.78 376.44,345.603C369.307,385.425 331.185,411.965 291.363,404.832C251.54,397.699 225,359.578 232.133,319.755C239.266,279.933 277.388,253.393 317.21,260.526ZM1127.42,319.047C1151.14,322.03 1167.98,343.71 1164.99,367.431C1162.01,391.152 1140.33,407.989 1116.61,405.006C1092.89,402.023 1076.05,380.343 1079.03,356.622C1082.02,332.901 1103.7,316.064 1127.42,319.047ZM970.841,271.63C997.56,274.835 1016.65,299.129 1013.45,325.848C1010.24,352.567 985.947,371.657 959.229,368.453C932.51,365.248 913.419,340.954 916.623,314.236C919.828,287.517 944.122,268.426 970.841,271.63ZM689.131,161.043C683.318,159.767 677.394,159.056 671.444,158.922L666.93,175.836C661.415,176.015 655.937,176.8 650.594,178.178L641.509,163.215C635.836,165.016 630.351,167.362 625.131,170.222L629.679,187.126C624.992,190.038 620.641,193.458 616.703,197.323L601.353,188.907C597.341,193.303 593.764,198.077 590.673,203.163L603.063,215.529C600.461,220.395 598.402,225.532 596.924,230.848L579.423,231.234C578.146,237.048 577.436,242.971 577.302,248.921L594.215,253.435C594.394,258.95 595.18,264.428 596.558,269.771L581.595,278.856C583.395,284.529 585.742,290.014 588.601,295.234L605.505,290.686C608.418,295.373 611.837,299.724 615.702,303.662L607.286,319.012C611.682,323.024 616.457,326.601 621.543,329.692L633.909,317.302C638.774,319.904 643.911,321.963 649.228,323.441L649.614,340.942C655.427,342.219 661.35,342.929 667.301,343.063L671.814,326.15C677.329,325.971 682.808,325.185 688.151,323.807L697.236,338.77C702.908,336.97 708.393,334.623 713.613,331.764L709.066,314.86C713.752,311.947 718.104,308.528 722.042,304.663L737.391,313.079C741.404,308.683 744.981,303.908 748.072,298.822L735.681,286.456C738.284,281.591 740.342,276.454 741.821,271.138L759.322,270.751C760.599,264.938 761.309,259.015 761.443,253.064L744.53,248.551C744.35,243.036 743.565,237.557 742.187,232.214L757.15,223.129C755.349,217.457 753.003,211.972 750.144,206.752L733.239,211.299C730.327,206.613 726.907,202.261 723.042,198.323L731.458,182.974C727.062,178.961 722.288,175.384 717.202,172.293L704.836,184.684C699.97,182.081 694.833,180.023 689.517,178.544L689.131,161.043ZM1241.76,191.973C1237.37,190.982 1232.89,190.42 1228.39,190.293L1224.91,203.447C1220.77,203.558 1216.65,204.124 1212.63,205.136L1205.74,193.409C1201.44,194.746 1197.28,196.497 1193.32,198.636L1196.89,211.766C1193.35,213.934 1190.07,216.484 1187.1,219.37L1175.26,212.663C1172.2,215.97 1169.48,219.565 1167.12,223.398L1176.77,232.986C1174.8,236.629 1173.23,240.479 1172.1,244.466L1158.49,244.577C1157.5,248.968 1156.94,253.444 1156.81,257.943L1169.96,261.419C1170.07,265.563 1170.64,269.681 1171.65,273.7L1159.93,280.599C1161.26,284.897 1163.01,289.055 1165.15,293.015L1178.28,289.448C1180.45,292.981 1183,296.264 1185.89,299.239L1179.18,311.077C1182.49,314.13 1186.08,316.856 1189.91,319.216L1199.5,309.562C1203.15,311.537 1207,313.106 1210.98,314.239L1211.09,327.845C1215.48,328.835 1219.96,329.398 1224.46,329.525L1227.94,316.371C1232.08,316.26 1236.2,315.694 1240.22,314.682L1247.12,326.409C1251.41,325.072 1255.57,323.321 1259.53,321.182L1255.96,308.051C1259.5,305.884 1262.78,303.334 1265.76,300.448L1277.59,307.155C1280.65,303.848 1283.37,300.253 1285.73,296.42L1276.08,286.832C1278.05,283.189 1279.62,279.339 1280.76,275.352L1294.36,275.241C1295.35,270.85 1295.91,266.374 1296.04,261.875L1282.89,258.398C1282.78,254.255 1282.21,250.137 1281.2,246.118L1292.93,239.219C1291.59,234.921 1289.84,230.763 1287.7,226.803L1274.57,230.37C1272.4,226.837 1269.85,223.554 1266.96,220.579L1273.67,208.741C1270.36,205.688 1266.77,202.962 1262.94,200.602L1253.35,210.256C1249.7,208.28 1245.86,206.712 1241.87,205.579L1241.76,191.973ZM675.372,200.963C702.984,204.275 722.713,229.381 719.402,256.993C716.09,284.605 690.984,304.334 663.372,301.022C635.76,297.71 616.031,272.605 619.343,244.993C622.655,217.381 647.761,197.652 675.372,200.963ZM1231.18,222.102C1252.05,224.726 1266.86,243.797 1264.23,264.663C1261.61,285.53 1242.54,300.34 1221.67,297.716C1200.81,295.092 1186,276.021 1188.62,255.155C1191.24,234.288 1210.31,219.478 1231.18,222.102Z" style="fill:url(#_Linear1);"/>
    </g>
    <defs>
        <linearGradient id="_Linear1" x1="0" y1="0" x2="1" y2="0" gradientUnits="userSpaceOnUse" gradientTransform="matrix(4.58811e-14,749.295,-749.295,4.58811e-14,822.086,10.8465)"><stop offset="0" style="stop-color:white;stop-opacity:1"/><stop offset="1" style="stop-color:white;stop-opacity:0"/></linearGradient>
    </defs>
</svg>
